<svg width="16" height="16" viewBox="0 0 16 16" fill="none" xmlns="http://www.w3.org/2000/svg">
<path d="M9.36 1.22985C9.25874 1.3138 9.17504 1.4169 9.11369 1.53325C9.05234 1.6496 9.01454 1.7769 9.00246 1.90788C8.99039 2.03886 9.00427 2.17093 9.04331 2.29653C9.08236 2.42213 9.1458 2.5388 9.23 2.63985L12.86 6.99985L1 6.99985C0.734783 6.99985 0.480429 7.10521 0.292893 7.29274C0.105357 7.48028 -3.17627e-07 7.73463 -3.06034e-07 7.99985C-2.94441e-07 8.26507 0.105357 8.51942 0.292893 8.70696C0.48043 8.89449 0.734783 8.99985 1 8.99985L12.86 8.99985L9.23 13.3598C9.14595 13.461 9.08265 13.5776 9.0437 13.7032C9.00474 13.8288 8.99091 13.9608 9.00298 14.0918C9.01505 14.2227 9.05279 14.35 9.11405 14.4663C9.17531 14.5827 9.25888 14.6858 9.36 14.7698C9.46112 14.8539 9.5778 14.9172 9.70338 14.9562C9.82897 14.9951 9.96099 15.0089 10.0919 14.9969C10.2229 14.9848 10.3501 14.9471 10.4665 14.8858C10.5828 14.8245 10.686 14.741 10.77 14.6398L15.77 8.63985L15.86 8.48985L15.93 8.35985C16.0194 8.12817 16.0194 7.87153 15.93 7.63985L15.86 7.50985L15.77 7.35985L10.77 1.35985C10.6861 1.25859 10.5829 1.17489 10.4666 1.11354C10.3503 1.05219 10.2229 1.01439 10.092 1.00231C9.96099 0.990238 9.82892 1.00412 9.70332 1.04317C9.57771 1.08221 9.46105 1.14565 9.36 1.22985Z" fill="#4F478F"/>
</svg>
