<svg width="32" height="32" viewBox="0 0 32 32" fill="none" xmlns="http://www.w3.org/2000/svg">
<path d="M12.0024 16.011C12.0019 16.2442 12.0832 16.4703 12.2322 16.6499L17.2297 22.6394C17.3993 22.8432 17.6431 22.9714 17.9074 22.9958C18.1717 23.0201 18.4348 22.9386 18.6389 22.7692C18.843 22.5997 18.9714 22.3562 18.9958 22.0923C19.0201 21.8283 18.9385 21.5655 18.7689 21.3616L14.2912 16.011L18.6089 10.6603C18.692 10.5582 18.754 10.4407 18.7914 10.3146C18.8288 10.1885 18.8409 10.0562 18.827 9.92545C18.813 9.79465 18.7733 9.66789 18.7102 9.55245C18.6471 9.43702 18.5617 9.33519 18.459 9.25281C18.3563 9.16139 18.2357 9.09215 18.1049 9.04943C17.9741 9.00671 17.8359 8.99144 17.6989 9.00456C17.5619 9.01768 17.4291 9.05891 17.3088 9.12568C17.1885 9.19244 17.0833 9.28331 16.9998 9.39256L12.1723 15.3821C12.0468 15.5668 11.987 15.7883 12.0024 16.011Z" fill="#4F478F"/>
</svg>
