<svg width="32" height="32" viewBox="0 0 32 32" fill="none" xmlns="http://www.w3.org/2000/svg">
<path d="M18.9976 15.989C18.9981 15.7558 18.9168 15.5297 18.7678 15.3501L13.7703 9.36062C13.6007 9.15676 13.3569 9.02856 13.0926 9.00422C12.8283 8.97989 12.5652 9.06141 12.3611 9.23085C12.157 9.40029 12.0286 9.64378 12.0042 9.90774C11.9799 10.1717 12.0615 10.4345 12.2311 10.6384L16.7088 15.989L12.3911 21.3397C12.308 21.4418 12.246 21.5593 12.2086 21.6854C12.1712 21.8115 12.1591 21.9438 12.173 22.0746C12.187 22.2054 12.2267 22.3321 12.2898 22.4475C12.3529 22.563 12.4383 22.6648 12.541 22.7472C12.6437 22.8386 12.7643 22.9079 12.8951 22.9506C13.0259 22.9933 13.1641 23.0086 13.3011 22.9954C13.4381 22.9823 13.5709 22.9411 13.6912 22.8743C13.8115 22.8076 13.9167 22.7167 14.0002 22.6074L18.8277 16.6179C18.9532 16.4332 19.013 16.2117 18.9976 15.989Z" fill="#4F478F"/>
</svg>
