<svg width="105" height="104" viewBox="0 0 105 104" fill="none" xmlns="http://www.w3.org/2000/svg">
<g clip-path="url(#clip0)">
<path d="M59.0937 103.702L7.50226 77.6772C6.13501 76.9874 5.58562 75.3202 6.27514 73.9529L42.1814 2.73546C42.871 1.36776 44.5389 0.818155 45.9066 1.50789L97.498 27.5332C98.8652 28.2229 99.4146 29.8902 98.7251 31.2574L62.8188 102.475C62.1293 103.843 60.4614 104.392 59.0937 103.702Z" fill="#D5D6DB"/>
<path d="M83.9574 98.1275H21.0383C19.5067 98.1275 18.2651 96.886 18.2651 95.3544V8.72297C18.2651 7.19139 19.5067 5.94983 21.0383 5.94983H83.9574C85.489 5.94983 86.7306 7.19139 86.7306 8.72297V95.3544C86.7306 96.886 85.489 98.1275 83.9574 98.1275Z" fill="#E1E6E9"/>
<path d="M36.4148 0H29.9838C27.5931 0 25.6484 1.94462 25.6484 4.33537V5.94978H28.5386V4.33537C28.5386 3.53793 29.1864 2.89017 29.9838 2.89017H36.4148C37.2122 2.89017 37.86 3.53793 37.86 4.33537V28.9004C37.86 29.6978 37.2122 30.3456 36.4148 30.3456H32.874C32.0765 30.3456 31.4288 29.6978 31.4288 28.9004V15.31H28.5386V28.9004C28.5386 31.2911 30.4832 33.2358 32.874 33.2358H36.4148C38.8055 33.2358 40.7502 31.2911 40.7502 28.9004V4.33537C40.7502 1.94462 38.8053 0 36.4148 0Z" fill="#64798A"/>
<path d="M79.0857 16.0328H45.3398V19.531H79.0857V16.0328Z" fill="#D5D6DB"/>
<path d="M79.0857 29.7375H45.3398V33.2357H79.0857V29.7375Z" fill="#D5D6DB"/>
<path d="M79.0844 43.4381H25.9102V46.9363H79.0844V43.4381Z" fill="#D5D6DB"/>
<path d="M79.0844 57.1399H25.9102V60.6381H79.0844V57.1399Z" fill="#D5D6DB"/>
<path d="M79.0844 70.8433H25.9102V74.3414H79.0844V70.8433Z" fill="#D5D6DB"/>
<path d="M79.0844 84.5425H25.9102V88.0407H79.0844V84.5425Z" fill="#D5D6DB"/>
</g>
<defs>
<clipPath id="clip0">
<rect width="104" height="104" fill="white" transform="translate(0.5)"/>
</clipPath>
</defs>
</svg>
