<svg width="104" height="104" viewBox="0 0 104 104" fill="none" xmlns="http://www.w3.org/2000/svg">
<path d="M102.304 41.9863V98.9267C102.314 100.347 101.713 101.704 100.655 102.65L100.505 102.8C99.5922 103.578 98.4305 104.004 97.2305 104H6.7714C5.58001 104 4.42778 103.574 3.52196 102.8C3.4602 102.764 3.40876 102.712 3.37239 102.65C2.30582 101.707 1.6957 100.351 1.69699 98.9267V41.9863C1.68515 40.7204 2.16959 39.5002 3.04657 38.5873C3.40403 38.1652 3.83359 37.8097 4.31479 37.537C5.06566 37.1262 5.90799 36.9112 6.76387 36.9119H97.2294C98.6493 36.9375 99.9998 37.5315 100.979 38.5606C101.829 39.4991 102.301 40.7198 102.304 41.9863Z" fill="#F6B863"/>
<path d="M100.983 38.5556C100.627 38.9957 52.027 77.6459 52.027 77.6459L3.04395 38.5986L3.06547 38.5784V38.5569L49.2534 0.98329C50.8653 -0.327763 53.1763 -0.327763 54.7884 0.98329L100.983 38.5556Z" fill="#EAA14E"/>
<path d="M90.6504 12.3562V46.8768L52.0218 77.6459L13.3716 46.8351V12.3562H90.6504Z" fill="#E1E6E9"/>
<path d="M100.649 102.648C100.605 102.702 100.556 102.751 100.502 102.795L56.9888 73.7688L60.9712 70.5613L100.649 102.648Z" fill="#EAA14E"/>
<path d="M47.0322 73.7472L3.51927 102.791C3.45536 102.76 3.40349 102.708 3.37207 102.644L43.0293 70.519L47.0322 73.7472Z" fill="#EAA14E"/>
<path d="M21.9326 21.417H82.0666V24.026H21.9326V21.417Z" fill="#D5D6DB"/>
<path d="M21.9326 31.4797H82.0666V34.0887H21.9326V31.4797Z" fill="#D5D6DB"/>
<path d="M21.9326 41.5438H82.0666V44.1528H21.9326V41.5438Z" fill="#D5D6DB"/>
<path d="M32.0322 51.6063H71.9686V54.2153H32.0322V51.6063Z" fill="#D5D6DB"/>
</svg>
