<svg width="40" height="40" viewBox="0 0 40 40" fill="none" xmlns="http://www.w3.org/2000/svg">
<path d="M33.3333 5H6.66667C6.22464 5 5.80072 5.17559 5.48816 5.48816C5.17559 5.80072 5 6.22464 5 6.66667V33.3333C5 33.7754 5.17559 34.1993 5.48816 34.5118C5.80072 34.8244 6.22464 35 6.66667 35H21.025V23.4H17.1283V18.8583H21.025V15.525C21.025 11.65 23.3917 9.53833 26.8583 9.53833C28.0233 9.535 29.19 9.595 30.35 9.71667V13.75H27.9583C26.0783 13.75 25.7117 14.6467 25.7117 15.9583V18.85H30.2067L29.6233 23.3917H25.71V35H33.3333C33.7754 35 34.1993 34.8244 34.5118 34.5118C34.8244 34.1993 35 33.7754 35 33.3333V6.66667C35 6.22464 34.8244 5.80072 34.5118 5.48816C34.1993 5.17559 33.7754 5 33.3333 5Z" fill="white"/>
</svg>
