<svg width="104" height="104" viewBox="0 0 104 104" fill="none" xmlns="http://www.w3.org/2000/svg">
<path d="M26.1802 0L8.5249 17.6553V91.8562C8.5249 93.9701 10.2384 95.6836 12.3523 95.6836H74.4061C76.5198 95.6836 78.2335 93.9701 78.2335 91.8562V3.8274C78.2335 1.7135 76.5198 0 74.4061 0H26.1802Z" fill="#E1E6E9"/>
<path d="M26.1805 17.6554L26.1803 0.000244141L8.52539 17.6551L26.1805 17.6554Z" fill="#EBF0F3"/>
<path d="M78.2341 104C87.756 104 95.4751 96.2809 95.4751 86.759C95.4751 77.2371 87.756 69.5181 78.2341 69.5181C68.7122 69.5181 60.9932 77.2371 60.9932 86.759C60.9932 96.2809 68.7122 104 78.2341 104Z" fill="#44C4A1"/>
<path d="M90.6808 80.6455C90.4712 79.3885 89.2796 78.5358 88.0249 78.7476C83.5901 79.486 76.4687 85.963 73.0779 89.27L69.6418 86.0464C68.7129 85.1744 67.253 85.2201 66.3782 86.1502C65.5068 87.0802 65.553 88.5412 66.483 89.4137L71.548 94.1658C71.9933 94.5835 72.5605 94.791 73.1274 94.791C73.7283 94.791 74.329 94.5571 74.7812 94.0932C78.8655 89.9007 85.9112 83.7807 88.7823 83.3021C90.0404 83.0929 90.8905 81.903 90.6808 80.6455Z" fill="#EBF0F3"/>
<path d="M70.2339 14.8823H34.1826V17.6556H70.2339V14.8823Z" fill="#D5D6DB"/>
<path d="M70.2322 28.1935H16.5254V30.9667H70.2322V28.1935Z" fill="#D5D6DB"/>
<path d="M70.2322 41.5049H16.5254V44.2781H70.2322V41.5049Z" fill="#D5D6DB"/>
<path d="M70.2322 54.8119H16.5254V57.5851H70.2322V54.8119Z" fill="#D5D6DB"/>
<path d="M61.9128 68.1274H16.5254V70.9007H61.9128V68.1274Z" fill="#D5D6DB"/>
<path d="M52.2065 81.4344H16.5254V84.2077H52.2065V81.4344Z" fill="#D5D6DB"/>
</svg>
