<svg width="40" height="40" viewBox="0 0 40 40" fill="none" xmlns="http://www.w3.org/2000/svg">
<path d="M34.9111 13.8416C34.8942 12.5793 34.6579 11.3296 34.2127 10.1483C33.8266 9.15188 33.2369 8.24696 32.4813 7.49134C31.7257 6.73573 30.8208 6.14604 29.8244 5.75996C28.6583 5.32222 27.4263 5.08553 26.1811 5.05996C24.5777 4.98829 24.0694 4.96829 19.9994 4.96829C15.9294 4.96829 15.4077 4.96829 13.8161 5.05996C12.5713 5.08572 11.34 5.32241 10.1744 5.75996C9.17781 6.14577 8.27275 6.73537 7.51711 7.49101C6.76146 8.24666 6.17187 9.15172 5.78605 10.1483C5.34744 11.3135 5.11126 12.5451 5.08772 13.79C5.01605 15.395 4.99438 15.9033 4.99438 19.9733C4.99438 24.0433 4.99438 24.5633 5.08772 26.1566C5.11272 27.4033 5.34772 28.6333 5.78605 29.8016C6.17251 30.7979 6.76254 31.7026 7.51844 32.4579C8.27434 33.2132 9.17949 33.8026 10.1761 34.1883C11.3384 34.6436 12.57 34.8973 13.8177 34.9383C15.4227 35.01 15.9311 35.0316 20.0011 35.0316C24.0711 35.0316 24.5927 35.0316 26.1844 34.9383C27.4296 34.9138 28.6617 34.6776 29.8277 34.24C30.8239 33.8534 31.7286 33.2636 32.4841 32.508C33.2397 31.7525 33.8295 30.8478 34.2161 29.8516C34.6544 28.685 34.8894 27.455 34.9144 26.2066C34.986 24.6033 35.0077 24.095 35.0077 20.0233C35.0044 15.9533 35.0044 15.4366 34.9111 13.8416ZM19.9894 27.67C15.7327 27.67 12.2844 24.2216 12.2844 19.965C12.2844 15.7083 15.7327 12.26 19.9894 12.26C22.0329 12.26 23.9927 13.0717 25.4376 14.5167C26.8826 15.9617 27.6944 17.9215 27.6944 19.965C27.6944 22.0085 26.8826 23.9683 25.4376 25.4132C23.9927 26.8582 22.0329 27.67 19.9894 27.67ZM28.0011 13.7716C27.0061 13.7716 26.2044 12.9683 26.2044 11.975C26.2044 11.7391 26.2508 11.5056 26.3411 11.2877C26.4313 11.0698 26.5636 10.8719 26.7304 10.7051C26.8971 10.5384 27.0951 10.4061 27.313 10.3158C27.5309 10.2256 27.7644 10.1791 28.0002 10.1791C28.2361 10.1791 28.4696 10.2256 28.6875 10.3158C28.9053 10.4061 29.1033 10.5384 29.2701 10.7051C29.4368 10.8719 29.5691 11.0698 29.6594 11.2877C29.7496 11.5056 29.7961 11.7391 29.7961 11.975C29.7961 12.9683 28.9927 13.7716 28.0011 13.7716Z" fill="white"/>
<path d="M19.9908 24.9701C22.755 24.9701 24.9958 22.7292 24.9958 19.9651C24.9958 17.2009 22.755 14.9601 19.9908 14.9601C17.2267 14.9601 14.9858 17.2009 14.9858 19.9651C14.9858 22.7292 17.2267 24.9701 19.9908 24.9701Z" fill="white"/>
</svg>
