<svg width="40" height="40" viewBox="0 0 40 40" fill="none" xmlns="http://www.w3.org/2000/svg">
<path d="M17.732 8.71637C17.9008 8.85629 18.0403 9.02813 18.1426 9.22204C18.2448 9.41595 18.3078 9.62813 18.3279 9.84642C18.3481 10.0647 18.3249 10.2848 18.2598 10.4942C18.1948 10.7035 18.089 10.898 17.9487 11.0664L11.8987 18.333L31.6654 18.333C32.1074 18.333 32.5313 18.5086 32.8439 18.8212C33.1564 19.1338 33.332 19.5577 33.332 19.9997C33.332 20.4417 33.1564 20.8657 32.8439 21.1782C32.5313 21.4908 32.1074 21.6664 31.6654 21.6664L11.8987 21.6664L17.9487 28.933C18.0888 29.1016 18.1943 29.296 18.2592 29.5053C18.3241 29.7147 18.3472 29.9347 18.3271 30.1529C18.3069 30.3711 18.244 30.5832 18.1419 30.7772C18.0399 30.9711 17.9006 31.143 17.732 31.283C17.5635 31.4231 17.369 31.5286 17.1597 31.5935C16.9504 31.6585 16.7304 31.6815 16.5122 31.6614C16.2939 31.6413 16.0818 31.5784 15.8879 31.4763C15.694 31.3742 15.5221 31.2349 15.382 31.0664L7.0487 21.0664L6.8987 20.8164L6.78203 20.5997C6.63304 20.2136 6.63304 19.7858 6.78203 19.3997L6.8987 19.183L7.0487 18.933L15.382 8.93304C15.5219 8.76428 15.6938 8.62478 15.8877 8.52252C16.0816 8.42027 16.2938 8.35727 16.5121 8.33715C16.7304 8.31702 16.9505 8.34016 17.1598 8.40523C17.3692 8.47031 17.5636 8.57604 17.732 8.71637Z" fill="#4F478F"/>
</svg>
