<svg width="213" height="44" viewBox="0 0 213 44" fill="none" xmlns="http://www.w3.org/2000/svg">
<path fill-rule="evenodd" clip-rule="evenodd" d="M173.096 3.5442L187.818 20.6797L173.096 37.8178L177.179 41.3573L194.943 20.6797L177.179 0.000778198L173.096 3.5442Z" fill="#7AB72B"/>
<path fill-rule="evenodd" clip-rule="evenodd" d="M191.001 3.5442L205.723 20.6797L191.001 37.8178L195.084 41.3573L212.848 20.6797L195.084 0.000778198L191.001 3.5442Z" fill="#7AB72B"/>
<path fill-rule="evenodd" clip-rule="evenodd" d="M18.4057 36.5411C18.4057 36.9073 18.3875 37.2142 18.3511 37.4612C18.3141 37.7088 18.255 37.9193 18.1731 38.0933C18.0906 38.2679 17.9906 38.3957 17.8717 38.4778C17.7528 38.5605 17.6119 38.6016 17.4475 38.6016H1.78233C1.36204 38.6016 0.965131 38.4602 0.590959 38.1761C0.216138 37.8919 0.0290527 37.3928 0.0290527 36.6786V3.76625C0.0290527 3.61963 0.0654305 3.49126 0.138836 3.38178C0.211591 3.27165 0.339563 3.18498 0.522101 3.12047C0.70464 3.05661 0.950839 3.00187 1.26135 2.9556C1.57186 2.91064 1.94603 2.88718 2.38451 2.88718C2.84053 2.88718 3.21925 2.91064 3.52067 2.9556C3.82208 3.00187 4.06374 3.05661 4.24692 3.12047C4.42881 3.18498 4.55743 3.27165 4.63019 3.38178C4.70295 3.49191 4.73997 3.61963 4.73997 3.76625V34.5086H17.4475C17.6119 34.5086 17.7528 34.5496 17.8717 34.6324C17.9899 34.7151 18.0906 34.8337 18.1731 34.9888C18.2556 35.1446 18.3147 35.3505 18.3511 35.6073C18.3875 35.864 18.4057 36.1748 18.4057 36.5411Z" fill="#7AB72B"/>
<path fill-rule="evenodd" clip-rule="evenodd" d="M28.3198 37.8874C28.3198 38.0347 28.2828 38.1624 28.21 38.2719C28.1366 38.382 28.0086 38.4687 27.8268 38.5332C27.6436 38.5977 27.4026 38.6518 27.1005 38.698C26.7991 38.743 26.4204 38.7665 25.9643 38.7665C25.5259 38.7665 25.151 38.743 24.8412 38.698C24.5307 38.6518 24.2845 38.597 24.1019 38.5332C23.9194 38.4687 23.7914 38.382 23.7187 38.2719C23.6453 38.1617 23.6089 38.0347 23.6089 37.8874V3.76625C23.6089 3.61963 23.6498 3.49126 23.7323 3.38178C23.8148 3.27165 23.9512 3.18498 24.1429 3.12047C24.3345 3.05661 24.5813 3.00187 24.8821 2.9556C25.1835 2.91064 25.5434 2.88718 25.9643 2.88718C26.4204 2.88718 26.7991 2.91064 27.1005 2.9556C27.4019 3.00187 27.6436 3.05661 27.8268 3.12047C28.0086 3.18498 28.1373 3.27165 28.21 3.38178C28.2828 3.49191 28.3198 3.61963 28.3198 3.76625V37.8874Z" fill="#7AB72B"/>
<path fill-rule="evenodd" clip-rule="evenodd" d="M71.7831 41.7323C71.7831 42.1532 71.7603 42.5058 71.7148 42.7892C71.6687 43.0734 71.6005 43.293 71.5096 43.4487C71.418 43.6038 71.3179 43.71 71.2082 43.7648C71.0984 43.8195 70.9886 43.8475 70.8795 43.8475C70.5144 43.8475 69.9252 43.6963 69.1132 43.3946C68.3012 43.0929 67.3651 42.6524 66.3063 42.0763C65.2474 41.499 64.1151 40.7984 62.9101 39.9741C61.7051 39.1498 60.5365 38.1886 59.4049 37.0892C58.5104 37.6386 57.3781 38.1149 56.0087 38.5177C54.6394 38.9204 53.0511 39.1224 51.2433 39.1224C48.5773 39.1224 46.2725 38.7281 44.3282 37.941C42.384 37.1538 40.7769 35.9997 39.5082 34.4794C38.2389 32.9591 37.2943 31.0686 36.6733 28.8068C36.0523 26.5449 35.7424 23.9487 35.7424 21.0182C35.7424 18.1979 36.0802 15.6473 36.7558 13.3672C37.4314 11.087 38.4448 9.14577 39.796 7.54271C41.1471 5.9403 42.8361 4.70411 44.8622 3.83416C46.889 2.9642 49.2529 2.5289 51.9552 2.5289C54.4926 2.5289 56.7253 2.92315 58.6513 3.71034C60.5774 4.49819 62.193 5.64771 63.4987 7.15823C64.8037 8.66941 65.7853 10.5331 66.4427 12.7488C67.1001 14.965 67.4288 17.511 67.4288 20.3861C67.4288 21.8699 67.3417 23.2892 67.1683 24.6447C66.9948 26.0007 66.7207 27.2825 66.3472 28.4914C65.9724 29.7002 65.502 30.8171 64.9369 31.8428C64.3704 32.8692 63.7039 33.7932 62.9374 34.6175C64.2697 35.7162 65.4384 36.5731 66.4427 37.1863C67.4463 37.8002 68.2778 38.2629 68.9345 38.5737C69.5919 38.8852 70.1025 39.1094 70.4683 39.2462C70.8327 39.3837 71.1068 39.5395 71.29 39.7134C71.4719 39.8868 71.6005 40.1344 71.6733 40.455C71.746 40.775 71.7831 41.2012 71.7831 41.7323ZM62.4716 20.7158C62.4716 18.7009 62.2937 16.8333 61.9377 15.111C61.5817 13.3893 60.988 11.8925 60.1571 10.6192C59.3263 9.34648 58.2167 8.35271 56.8298 7.6385C55.4423 6.92429 53.726 6.56719 51.6811 6.56719C49.6361 6.56719 47.9199 6.9471 46.5323 7.70758C45.1448 8.46805 44.0171 9.4931 43.1499 10.7847C42.2826 12.0756 41.6616 13.5731 41.2874 15.2765C40.9133 16.9799 40.7255 18.7837 40.7255 20.6891C40.7255 22.777 40.899 24.6955 41.2459 26.4445C41.5928 28.1935 42.1767 29.7099 42.9985 30.9917C43.8202 32.2742 44.92 33.268 46.2985 33.9724C47.6769 34.6775 49.4068 35.03 51.4882 35.03C53.5513 35.03 55.2857 34.6455 56.6915 33.8766C58.0972 33.1077 59.2288 32.0683 60.0876 30.7584C60.9457 29.4493 61.557 27.9283 61.9227 26.1982C62.2891 24.4661 62.4716 22.6389 62.4716 20.7158Z" fill="#7AB72B"/>
<path fill-rule="evenodd" clip-rule="evenodd" d="M97.2515 13.4636C97.2515 15.2406 96.9592 16.8431 96.3752 18.2715C95.7906 19.7005 94.9558 20.9185 93.8697 21.9253C92.7836 22.9327 91.4499 23.7108 89.8707 24.2602C88.2915 24.8095 86.4064 25.0845 84.2159 25.0845H80.1897V37.8868C80.1897 38.0341 80.1488 38.1618 80.0663 38.2713C79.9838 38.3814 79.8564 38.4681 79.683 38.5326C79.5096 38.5971 79.2724 38.6512 78.971 38.6975C78.6696 38.7425 78.2909 38.7659 77.8349 38.7659C77.3782 38.7659 76.9995 38.7425 76.6981 38.6975C76.3966 38.6512 76.1544 38.5965 75.9718 38.5326C75.7893 38.4681 75.6613 38.3814 75.5885 38.2713C75.5151 38.1612 75.4788 38.0341 75.4788 37.8868V5.084C75.4788 4.35154 75.6704 3.82957 76.0537 3.51808C76.4369 3.20659 76.8657 3.05084 77.3412 3.05084H84.9273C85.6944 3.05084 86.4291 3.08277 87.132 3.14729C87.8349 3.2118 88.6651 3.34865 89.6239 3.55913C90.582 3.77027 91.5591 4.16386 92.5543 4.74058C93.5488 5.31729 94.3933 6.02759 95.0877 6.86952C95.7815 7.71211 96.3155 8.68763 96.6896 9.79544C97.0638 10.9045 97.2515 12.127 97.2515 13.4636ZM92.2944 13.8481C92.2944 12.4014 92.0248 11.1926 91.4863 10.221C90.9478 9.25066 90.2813 8.52732 89.4868 8.05097C88.693 7.57461 87.8713 7.27289 87.0222 7.14452C86.1732 7.01679 85.3469 6.95228 84.5433 6.95228H80.189V21.2104H84.4342C85.8588 21.2104 87.0404 21.028 87.981 20.6611C88.921 20.2955 89.7109 19.7872 90.3501 19.1362C90.9894 18.4865 91.4727 17.7078 91.802 16.8013C92.1301 15.8949 92.2944 14.9103 92.2944 13.8481Z" fill="#7AB72B"/>
<path fill-rule="evenodd" clip-rule="evenodd" d="M130.992 36.9247C131.137 37.328 131.215 37.6526 131.224 37.9002C131.233 38.1478 131.165 38.3355 131.019 38.4639C130.873 38.5916 130.631 38.6737 130.294 38.7108C129.955 38.7473 129.504 38.7662 128.938 38.7662C128.372 38.7662 127.92 38.7526 127.582 38.7252C127.244 38.6978 126.988 38.6515 126.816 38.5877C126.642 38.5238 126.514 38.4365 126.432 38.327C126.35 38.2169 126.273 38.0794 126.2 37.9152L123.16 29.2612H108.425L105.522 37.805C105.467 37.9699 105.394 38.1126 105.303 38.2306C105.211 38.3498 105.079 38.4508 104.906 38.5329C104.732 38.6151 104.486 38.6744 104.167 38.7115C103.847 38.748 103.431 38.7669 102.921 38.7669C102.391 38.7669 101.957 38.7434 101.62 38.6985C101.282 38.6522 101.045 38.5655 100.908 38.4371C100.772 38.3094 100.707 38.1211 100.717 37.8741C100.726 37.6265 100.803 37.3013 100.949 36.8986L112.835 3.87615C112.908 3.67479 113.004 3.50993 113.122 3.38155C113.24 3.25318 113.414 3.15217 113.642 3.07918C113.87 3.0062 114.163 2.95537 114.519 2.928C114.874 2.90063 115.327 2.88695 115.874 2.88695C116.458 2.88695 116.942 2.90063 117.326 2.928C117.709 2.95537 118.02 3.0062 118.257 3.07918C118.494 3.15282 118.677 3.25774 118.805 3.39524C118.932 3.53273 119.033 3.70216 119.106 3.90352L130.992 36.9247ZM115.737 7.77564H115.71L109.603 25.4953H121.927L115.737 7.77564Z" fill="#7AB72B"/>
<path fill-rule="evenodd" clip-rule="evenodd" d="M148.189 24.78V37.8841C148.189 38.0314 148.153 38.1591 148.08 38.2686C148.008 38.3787 147.88 38.4654 147.699 38.5299C147.518 38.5944 147.272 38.6485 146.964 38.6947C146.655 38.7397 146.283 38.7632 145.848 38.7632C145.393 38.7632 145.017 38.7397 144.717 38.6947C144.418 38.6485 144.172 38.5937 143.982 38.5299C143.791 38.4654 143.66 38.3787 143.587 38.2686C143.514 38.1584 143.478 38.0314 143.478 37.8841V24.78L133.455 4.7248C133.254 4.30383 133.13 3.97409 133.085 3.73559C133.039 3.49774 133.085 3.31462 133.222 3.18625C133.359 3.05852 133.606 2.97642 133.962 2.93927C134.318 2.90278 134.796 2.88388 135.399 2.88388C135.947 2.88388 136.389 2.90278 136.728 2.93927C137.066 2.97642 137.334 3.02659 137.536 3.09045C137.737 3.15497 137.887 3.2462 137.987 3.36545C138.088 3.4847 138.184 3.63589 138.275 3.81835L143.177 14.0382C143.632 15.0092 144.087 16.0257 144.54 17.0879C144.993 18.1501 145.457 19.2214 145.929 20.3019H145.983C146.4 19.2579 146.831 18.2192 147.277 17.1837C147.721 16.1496 148.171 15.1284 148.627 14.121L153.556 3.84637C153.612 3.66326 153.689 3.50751 153.79 3.37914C153.89 3.25141 154.026 3.15497 154.2 3.09045C154.374 3.02659 154.615 2.97642 154.926 2.93927C155.236 2.90278 155.629 2.88388 156.104 2.88388C156.761 2.88388 157.277 2.90734 157.651 2.9523C158.025 2.99857 158.285 3.08524 158.432 3.21362C158.579 3.34199 158.628 3.52511 158.582 3.76296C158.537 4.00146 158.414 4.32142 158.213 4.72414L148.189 24.78Z" fill="#7AB72B"/>
</svg>
