<svg width="40" height="40" viewBox="0 0 40 40" fill="none" xmlns="http://www.w3.org/2000/svg">
<path d="M20.1513 10.3485C21.4751 10.3485 22.759 10.6076 23.9671 11.1186C25.1345 11.6123 26.183 12.3193 27.0837 13.22C27.9843 14.1206 28.6913 15.1692 29.185 16.3365C29.696 17.5446 29.9551 18.8285 29.9551 20.1523C29.9551 21.4762 29.696 22.7601 29.185 23.9682C28.6913 25.1355 27.9843 26.1841 27.0837 27.0847C26.183 27.9853 25.1345 28.6924 23.9671 29.1861C22.759 29.6971 21.4752 29.9562 20.1513 29.9562C18.8274 29.9562 17.5435 29.6971 16.3354 29.1861C15.1681 28.6924 14.1195 27.9853 13.2189 27.0847C12.3183 26.1841 11.6112 25.1355 11.1175 23.9682C10.6065 22.7601 10.3474 21.4762 10.3474 20.1523C10.3474 18.8285 10.6065 17.5446 11.1175 16.3365C11.6112 15.1692 12.3183 14.1206 13.2189 13.22C14.1195 12.3193 15.1681 11.6123 16.3354 11.1186C17.5435 10.6076 18.8274 10.3485 20.1513 10.3485ZM20.1513 9.51233C14.2749 9.51233 9.51123 14.276 9.51123 20.1523C9.51123 26.0286 14.2749 30.7923 20.1513 30.7923C26.0276 30.7923 30.7913 26.0286 30.7913 20.1523C30.7913 14.276 26.0276 9.51233 20.1513 9.51233Z" fill="#71B03E"/>
<path d="M19.5044 23.8359H14.6968C14.7904 22.1397 15.6125 21.5361 16.8925 20.7349C17.6833 20.2354 18.6511 19.6942 18.6511 18.6224C18.6511 17.8003 18.0684 17.228 17.2255 17.228C16.1224 17.228 15.7423 18.1646 15.7215 19.0803H14.9035L14.8945 18.8826C14.8945 17.4257 15.8414 16.458 17.2671 16.458C18.6615 16.458 19.5668 17.3008 19.5668 18.6016C19.5668 20.0376 18.443 20.7245 17.3608 21.3801C16.6844 21.7859 15.9143 22.1836 15.7166 23.016H19.5044V23.8359H19.5044ZM25.5812 22.051H24.5732L24.5735 23.8359H23.7501L23.7497 22.051H20.5134L20.5138 21.1516L23.7681 16.4579H24.5735V21.2348H25.5816L25.5812 22.051ZM23.7501 17.734L21.3908 21.2348H23.7501V17.734Z" fill="#424242"/>
</svg>
