<svg width="40" height="40" viewBox="0 0 40 40" fill="none" xmlns="http://www.w3.org/2000/svg">
<path d="M10.1715 31.2164V29.7218C10.1803 29.5961 10.162 29.4699 10.1177 29.3518C10.0733 29.2336 10.004 29.1262 9.91433 29.0366C9.82467 28.947 9.71671 28.8774 9.59766 28.8323C9.47861 28.7872 9.35121 28.7678 9.22395 28.7752C9.0574 28.7645 8.89098 28.7981 8.74206 28.8726C8.59313 28.9471 8.46714 29.0597 8.37722 29.1987C8.29527 29.0638 8.17805 28.9533 8.0379 28.8788C7.89776 28.8043 7.73987 28.7685 7.58088 28.7752C7.44229 28.7683 7.30428 28.7973 7.18052 28.8594C7.05676 28.9214 6.95153 29.0143 6.87527 29.1289V28.835H6.35107V31.2164H6.88028V29.8961C6.86884 29.8147 6.87579 29.7317 6.90064 29.6532C6.92549 29.5747 6.96761 29.5026 7.02399 29.4421C7.08037 29.3817 7.1496 29.3343 7.22671 29.3034C7.30382 29.2725 7.38691 29.2588 7.46998 29.2634C7.81775 29.2634 7.99418 29.4876 7.99418 29.8912V31.2164H8.52338V29.8961C8.5128 29.8148 8.52036 29.7322 8.54552 29.6541C8.57069 29.576 8.61285 29.5042 8.66905 29.4439C8.72525 29.3836 8.79412 29.3362 8.87083 29.305C8.94754 29.2739 9.03022 29.2597 9.11308 29.2634C9.4709 29.2634 9.64226 29.4876 9.64226 29.8912V31.2164H10.1715ZM18.0038 28.835H17.147V28.1126H16.6178V28.835H16.1289V29.3083H16.6178V30.3944C16.6178 30.9474 16.8345 31.2762 17.4544 31.2762C17.686 31.2769 17.9131 31.213 18.1096 31.0919L17.9584 30.6484C17.8179 30.7313 17.6583 30.7776 17.4948 30.783C17.2327 30.783 17.147 30.6235 17.147 30.3844V29.3083H18.0038V28.835ZM22.4744 28.7752C22.3466 28.7715 22.2201 28.8019 22.1084 28.8633C21.9966 28.9247 21.9036 29.0147 21.8393 29.1239V28.835H21.3202V31.2164H21.8443V29.8812C21.8443 29.4876 22.0157 29.2684 22.3585 29.2684C22.4706 29.2669 22.5819 29.2872 22.6861 29.3282L22.8473 28.8399C22.7276 28.7976 22.6015 28.7757 22.4744 28.7752ZM15.7156 29.0243C15.4189 28.8499 15.0778 28.7634 14.7328 28.7752C14.1229 28.7752 13.7298 29.0641 13.7298 29.5374C13.7298 29.9261 14.0221 30.1652 14.5614 30.2399L14.8084 30.2748C15.0956 30.3146 15.2317 30.3894 15.2317 30.5239C15.2317 30.7082 15.0402 30.8129 14.6824 30.8129C14.3945 30.8211 14.1123 30.7333 13.881 30.5637L13.634 30.9673C13.9393 31.1781 14.3051 31.2864 14.6773 31.2762C15.3729 31.2762 15.776 30.9523 15.776 30.499C15.776 30.0805 15.4586 29.8613 14.9344 29.7865L14.6874 29.7516C14.4606 29.7218 14.2792 29.677 14.2792 29.5176C14.2792 29.3432 14.4505 29.2385 14.7378 29.2385C15.0016 29.2425 15.2601 29.3128 15.4888 29.4428L15.7156 29.0243ZM29.7573 28.7752C29.6295 28.7715 29.5031 28.8019 29.3913 28.8633C29.2795 28.9247 29.1866 29.0147 29.1223 29.1239V28.835H28.6031V31.2164H29.1273V29.8812C29.1273 29.4876 29.2987 29.2684 29.6414 29.2684C29.7535 29.2669 29.8648 29.2872 29.969 29.3282L30.1303 28.8399C30.0106 28.7976 29.8845 28.7757 29.7573 28.7752ZM23.0036 30.0256C22.9966 30.1934 23.0252 30.3608 23.0876 30.5169C23.15 30.6731 23.2448 30.8146 23.3659 30.9324C23.4869 31.0502 23.6316 31.1417 23.7905 31.2009C23.9495 31.2601 24.1192 31.2857 24.2888 31.2762C24.6035 31.2918 24.9127 31.1905 25.1557 30.9922L24.9037 30.5737C24.7225 30.7102 24.5015 30.7854 24.2737 30.7879C24.0773 30.7761 23.8928 30.6907 23.7579 30.5491C23.623 30.4074 23.5479 30.2202 23.5479 30.0257C23.5479 29.8312 23.623 29.644 23.7579 29.5023C23.8928 29.3607 24.0773 29.2752 24.2737 29.2634C24.5015 29.266 24.7225 29.3411 24.9037 29.4777L25.1557 29.0592C24.9127 28.8609 24.6035 28.7596 24.2888 28.7752C24.1192 28.7657 23.9495 28.7913 23.7906 28.8505C23.6316 28.9097 23.487 29.0011 23.3659 29.1189C23.2448 29.2367 23.1501 29.3782 23.0877 29.5344C23.0252 29.6905 22.9966 29.8579 23.0036 30.0256ZM27.9126 30.0256V28.835H27.3885V29.1239C27.299 29.01 27.1832 28.9188 27.0508 28.8582C26.9184 28.7975 26.7732 28.769 26.6274 28.7752C26.3026 28.7909 25.9964 28.9296 25.7721 29.1624C25.5479 29.3951 25.4228 29.7043 25.4228 30.0257C25.4228 30.3471 25.5479 30.6563 25.7721 30.8891C25.9964 31.1219 26.3026 31.2605 26.6274 31.2762C26.7732 31.2824 26.9184 31.2539 27.0508 31.1932C27.1832 31.1325 27.299 31.0414 27.3885 30.9274V31.2164H27.9126V30.0256ZM25.9621 30.0256C25.9702 29.8851 26.0198 29.75 26.1047 29.637C26.1896 29.524 26.306 29.438 26.4398 29.3896C26.5735 29.3413 26.7186 29.3327 26.8572 29.3649C26.9959 29.397 27.1219 29.4686 27.2199 29.5708C27.3178 29.673 27.3834 29.8012 27.4085 29.9398C27.4336 30.0784 27.4171 30.2211 27.3611 30.3505C27.305 30.4799 27.2119 30.5903 27.0932 30.668C26.9745 30.7458 26.8354 30.7874 26.693 30.7879C26.5931 30.7893 26.4941 30.7702 26.4022 30.7318C26.3102 30.6934 26.2273 30.6366 26.1586 30.565C26.09 30.4934 26.037 30.4085 26.0032 30.3157C25.9694 30.2228 25.9554 30.1241 25.9621 30.0256ZM19.6368 28.7752C19.3099 28.7922 19.0024 28.9337 18.7788 29.17C18.5552 29.4062 18.4328 29.719 18.4374 30.0425C18.4419 30.366 18.5731 30.6752 18.8033 30.9053C19.0335 31.1353 19.3449 31.2682 19.6721 31.2762C20.0317 31.2887 20.3833 31.1698 20.6599 30.9424L20.4029 30.5588C20.2038 30.7164 19.9573 30.8041 19.7023 30.8079C19.5291 30.8223 19.357 30.7695 19.2225 30.6607C19.088 30.5519 19.0016 30.3956 18.9816 30.2249H20.7708C20.7759 30.1602 20.7809 30.0954 20.7809 30.0256C20.7759 29.2834 20.3122 28.7752 19.6368 28.7752ZM19.6267 29.2385C19.785 29.2355 19.9381 29.2946 20.0524 29.4029C20.1667 29.5112 20.233 29.6599 20.2366 29.8164H18.9866C18.9958 29.6566 19.0679 29.5066 19.1876 29.3986C19.3072 29.2906 19.4648 29.2331 19.6267 29.2385ZM32.7763 30.0256V27.8784H32.2521V29.1239C32.1627 29.01 32.0469 28.9188 31.9145 28.8582C31.7821 28.7975 31.6369 28.769 31.4911 28.7752C31.1663 28.7909 30.8601 28.9295 30.6358 29.1623C30.4116 29.3951 30.2865 29.7043 30.2865 30.0257C30.2865 30.3472 30.4116 30.6563 30.6358 30.8891C30.8601 31.1219 31.1663 31.2605 31.4911 31.2762C31.6369 31.2824 31.7821 31.2539 31.9145 31.1932C32.0469 31.1325 32.1627 31.0414 32.2521 30.9274V31.2164H32.7763V30.0256ZM33.6501 30.8713C33.6827 30.8711 33.7149 30.8774 33.7449 30.8899C33.7738 30.9018 33.8001 30.919 33.8224 30.9406C33.8446 30.9622 33.8623 30.9878 33.8746 31.016C33.8872 31.0451 33.8937 31.0763 33.8937 31.1079C33.8937 31.1394 33.8872 31.1707 33.8746 31.1997C33.8622 31.2278 33.8445 31.2533 33.8224 31.2748C33.8 31.2964 33.7737 31.3137 33.7449 31.3258C33.715 31.3385 33.6827 31.3449 33.6501 31.3447C33.6021 31.3452 33.5551 31.3317 33.5149 31.3059C33.4746 31.2801 33.443 31.2432 33.4239 31.1997C33.4113 31.1707 33.4048 31.1394 33.4048 31.1079C33.4048 31.0763 33.4113 31.0451 33.4239 31.016C33.4362 30.9879 33.4538 30.9623 33.4758 30.9406C33.4981 30.9188 33.5246 30.9016 33.5536 30.8899C33.5842 30.8774 33.617 30.871 33.6501 30.8713ZM33.6501 31.2925C33.6749 31.2927 33.6995 31.2877 33.7223 31.278C33.7442 31.2686 33.7641 31.2552 33.781 31.2385C33.8158 31.2038 33.8353 31.1569 33.8353 31.108C33.8353 31.0591 33.8158 31.0122 33.781 30.9774C33.7641 30.9608 33.7442 30.9475 33.7223 30.9383C33.6995 30.9287 33.6749 30.9239 33.6501 30.9241C33.6248 30.9239 33.5998 30.9287 33.5765 30.9383C33.5542 30.9474 33.534 30.9607 33.5169 30.9774C33.4821 31.0122 33.4625 31.0591 33.4625 31.108C33.4625 31.1569 33.4821 31.2038 33.5169 31.2385C33.534 31.2553 33.5542 31.2687 33.5765 31.278C33.5998 31.2877 33.6248 31.2927 33.6501 31.2925ZM33.6642 30.9972C33.6878 30.9956 33.7111 31.0023 33.7303 31.016C33.7379 31.0222 33.7439 31.0301 33.7479 31.039C33.752 31.0479 33.7538 31.0576 33.7534 31.0674C33.7537 31.0757 33.7522 31.084 33.749 31.0918C33.7458 31.0995 33.741 31.1065 33.7349 31.1123C33.7203 31.1251 33.7019 31.1328 33.6824 31.1341L33.7552 31.217H33.6983L33.6308 31.1347H33.609V31.217H33.5615V30.9972H33.6642ZM33.609 31.0384V31.097H33.6636C33.6741 31.0975 33.6845 31.095 33.6936 31.0897C33.6973 31.0873 33.7002 31.0839 33.7022 31.08C33.7041 31.0761 33.705 31.0717 33.7047 31.0674C33.7049 31.0631 33.704 31.0588 33.7021 31.055C33.7001 31.0512 33.6972 31.0479 33.6936 31.0456C33.6845 31.0404 33.6741 31.0379 33.6636 31.0384H33.609ZM30.8258 30.0256C30.834 29.8851 30.8835 29.75 30.9684 29.637C31.0533 29.524 31.1698 29.438 31.3035 29.3897C31.4372 29.3413 31.5824 29.3327 31.721 29.3649C31.8596 29.3971 31.9856 29.4687 32.0836 29.5709C32.1815 29.6731 32.2471 29.8013 32.2722 29.9399C32.2972 30.0784 32.2807 30.2212 32.2247 30.3506C32.1687 30.48 32.0756 30.5903 31.9569 30.6681C31.8381 30.7458 31.699 30.7874 31.5566 30.7879C31.4568 30.7893 31.3578 30.7701 31.2659 30.7318C31.1739 30.6934 31.091 30.6366 31.0223 30.565C30.9537 30.4934 30.9008 30.4085 30.8669 30.3157C30.8331 30.2228 30.8191 30.1241 30.8258 30.0256ZM13.125 30.0256V28.835H12.6008V29.1239C12.5113 29.01 12.3955 28.9188 12.2631 28.8582C12.1307 28.7975 11.9855 28.769 11.8397 28.7752C11.5149 28.7909 11.2087 28.9296 10.9845 29.1624C10.7602 29.3951 10.6352 29.7043 10.6352 30.0257C10.6352 30.3471 10.7602 30.6563 10.9845 30.8891C11.2087 31.1219 11.5149 31.2605 11.8397 31.2762C11.9856 31.2824 12.1307 31.2539 12.2631 31.1932C12.3955 31.1325 12.5113 31.0414 12.6008 30.9274V31.2164H13.125V30.0256ZM11.1745 30.0256C11.1826 29.8851 11.2322 29.75 11.3171 29.637C11.402 29.524 11.5184 29.438 11.6522 29.3897C11.7859 29.3413 11.931 29.3327 12.0696 29.3649C12.2082 29.3971 12.3343 29.4687 12.4322 29.5709C12.5302 29.6731 12.5957 29.8013 12.6208 29.9399C12.6459 30.0784 12.6294 30.2212 12.5734 30.3506C12.5173 30.48 12.4242 30.5904 12.3055 30.6681C12.1868 30.7458 12.0477 30.7874 11.9053 30.7879C11.8055 30.7893 11.7065 30.7701 11.6145 30.7318C11.5225 30.6934 11.4396 30.6366 11.371 30.565C11.3023 30.4934 11.2494 30.4085 11.2156 30.3157C11.1818 30.2228 11.1678 30.1241 11.1745 30.0256Z" fill="#231F20"/>
<path d="M23.4702 10.7104H15.531V24.8132H23.4702V10.7104Z" fill="#FF5F00"/>
<path d="M16.0422 17.7526C16.0409 16.3944 16.3523 15.0538 16.9527 13.8321C17.5531 12.6104 18.4268 11.5398 19.5077 10.7012C18.1692 9.66124 16.5617 9.01448 14.8689 8.83488C13.1761 8.65529 11.4663 8.9501 9.93503 9.68562C8.40372 10.4211 7.11266 11.5677 6.2094 12.9942C5.30615 14.4208 4.82715 16.0697 4.82715 17.7526C4.82715 19.4356 5.30615 21.0845 6.2094 22.5111C7.11266 23.9376 8.40372 25.0841 9.93503 25.8197C11.4663 26.5552 13.1761 26.85 14.8689 26.6704C16.5617 26.4908 18.1692 25.844 19.5077 24.8041C18.4268 23.9655 17.5531 22.8949 16.9527 21.6732C16.3523 20.4515 16.0409 19.1108 16.0422 17.7526Z" fill="#EB001B"/>
<path d="M34.1813 17.7526C34.1814 19.4355 33.7024 21.0845 32.7992 22.511C31.896 23.9376 30.605 25.0841 29.0737 25.8196C27.5425 26.5552 25.8327 26.85 24.14 26.6704C22.4472 26.4908 20.8397 25.844 19.5012 24.804C20.5811 23.9647 21.4542 22.8938 22.0545 21.6724C22.6548 20.4509 22.9667 19.1106 22.9667 17.7526C22.9667 16.3946 22.6548 15.0544 22.0545 13.8329C21.4542 12.6114 20.5811 11.5406 19.5012 10.7012C20.8397 9.66123 22.4472 9.01448 24.14 8.83488C25.8327 8.65529 27.5425 8.9501 29.0737 9.68563C30.605 10.4212 31.896 11.5677 32.7992 12.9943C33.7024 14.4208 34.1814 16.0697 34.1813 17.7526Z" fill="#F79E1B"/>
<path d="M33.3279 23.3208V23.0321H33.4457V22.9732H33.1458V23.0321H33.2636V23.3208H33.3279ZM33.9103 23.3208V22.9727H33.8183L33.7126 23.2121L33.6068 22.9727H33.5148V23.3208H33.5797V23.0582L33.6789 23.2846H33.7462L33.8454 23.0576V23.3208H33.9103Z" fill="#F79E1B"/>
</svg>
