<svg width="48" height="48" viewBox="0 0 48 48" fill="none" xmlns="http://www.w3.org/2000/svg">
<rect x="12.5999" y="16.8" width="18.6" height="16.8" fill="#786CD9"/>
<path d="M24 4.5C13.236 4.5 4.5 13.236 4.5 24C4.5 34.764 13.236 43.5 24 43.5C34.764 43.5 43.5 34.764 43.5 24C43.5 13.236 34.764 4.5 24 4.5ZM19.125 29.2065V18.7935C19.125 17.253 20.841 16.317 22.128 17.1555L30.2205 22.362C30.4942 22.5388 30.7192 22.7813 30.875 23.0674C31.0308 23.3536 31.1125 23.6742 31.1125 24C31.1125 24.3258 31.0308 24.6464 30.875 24.9326C30.7192 25.2187 30.4942 25.4612 30.2205 25.638L22.128 30.8445C20.841 31.683 19.125 30.747 19.125 29.2065Z" fill="white"/>
</svg>
