<svg width="16" height="16" viewBox="0 0 16 16" fill="none" xmlns="http://www.w3.org/2000/svg">
<path d="M9.36024 1.22985C9.25898 1.3138 9.17528 1.4169 9.11393 1.53325C9.05258 1.6496 9.01478 1.7769 9.00271 1.90788C8.99063 2.03886 9.00451 2.17093 9.04356 2.29653C9.0826 2.42213 9.14604 2.5388 9.23024 2.63985L12.8602 6.99985L1.00024 6.99985C0.735027 6.99985 0.480674 7.10521 0.293137 7.29274C0.105601 7.48028 0.000243823 7.73463 0.000243835 7.99985C0.000243846 8.26507 0.105601 8.51942 0.293137 8.70696C0.480674 8.89449 0.735027 8.99985 1.00024 8.99985L12.8602 8.99985L9.23024 13.3598C9.1462 13.461 9.08289 13.5776 9.04394 13.7032C9.00499 13.8288 8.99115 13.9608 9.00322 14.0918C9.01529 14.2227 9.05304 14.35 9.11429 14.4663C9.17555 14.5827 9.25913 14.6858 9.36024 14.7698C9.46136 14.8539 9.57804 14.9172 9.70363 14.9562C9.82921 14.9951 9.96124 15.0089 10.0922 14.9969C10.2231 14.9848 10.3504 14.9471 10.4667 14.8858C10.5831 14.8245 10.6862 14.741 10.7702 14.6398L15.7702 8.63985L15.8602 8.48985L15.9302 8.35985C16.0196 8.12817 16.0196 7.87153 15.9302 7.63985L15.8602 7.50985L15.7702 7.35985L10.7702 1.35985C10.6863 1.25859 10.5832 1.17489 10.4668 1.11354C10.3505 1.05219 10.2232 1.01439 10.0922 1.00231C9.96124 0.990238 9.82917 1.00412 9.70356 1.04317C9.57796 1.08221 9.46129 1.14565 9.36024 1.22985Z" fill="#4F478F"/>
</svg>
