<svg width="40" height="40" viewBox="0 0 40 40" fill="none" xmlns="http://www.w3.org/2000/svg">
<path d="M22.268 8.71637C22.0992 8.85629 21.9597 9.02813 21.8574 9.22204C21.7552 9.41595 21.6922 9.62813 21.6721 9.84642C21.6519 10.0647 21.6751 10.2848 21.7402 10.4942C21.8052 10.7035 21.911 10.898 22.0513 11.0664L28.1013 18.333L8.33463 18.333C7.89261 18.333 7.46868 18.5086 7.15612 18.8212C6.84356 19.1338 6.66797 19.5577 6.66797 19.9997C6.66797 20.4417 6.84356 20.8657 7.15612 21.1782C7.46868 21.4908 7.89261 21.6664 8.33463 21.6664L28.1013 21.6664L22.0513 28.933C21.9112 29.1016 21.8057 29.296 21.7408 29.5053C21.6759 29.7147 21.6528 29.9347 21.6729 30.1529C21.6931 30.3711 21.756 30.5832 21.8581 30.7772C21.9601 30.9711 22.0994 31.143 22.268 31.283C22.4365 31.4231 22.631 31.5286 22.8403 31.5935C23.0496 31.6585 23.2696 31.6815 23.4878 31.6614C23.7061 31.6413 23.9182 31.5784 24.1121 31.4763C24.306 31.3742 24.4779 31.2349 24.618 31.0664L32.9513 21.0664L33.1013 20.8164L33.218 20.5997C33.367 20.2136 33.367 19.7858 33.218 19.3997L33.1013 19.183L32.9513 18.933L24.618 8.93304C24.4781 8.76428 24.3062 8.62478 24.1123 8.52252C23.9184 8.42027 23.7062 8.35727 23.4879 8.33715C23.2696 8.31702 23.0495 8.34016 22.8402 8.40523C22.6308 8.47031 22.4364 8.57604 22.268 8.71637Z" fill="#4F478F"/>
</svg>
