<svg width="911" height="103" viewBox="0 0 911 103" fill="none" xmlns="http://www.w3.org/2000/svg">
<path d="M39.5 31C57.5 13 71.5 2 121.5 2.00049C171.5 2.00098 189.5 66 260 46C330.5 26 364 86 431 86" stroke="#786CD9" stroke-width="4" stroke-linecap="round" stroke-dasharray="12 12"/>
<path d="M865 20C788 20 756 74 694 74C632 74 632.5 34 590.5 37.5C548.5 41 563 85 483 85" stroke="#786CD9" stroke-width="4" stroke-linecap="round" stroke-dasharray="12 12"/>
<circle cx="891" cy="32" r="20" fill="#786CD9"/>
<path d="M892.224 30.136C893.776 30.328 894.96 30.856 895.776 31.72C896.592 32.584 897 33.664 897 34.96C897 35.936 896.752 36.824 896.256 37.624C895.76 38.424 895.008 39.064 894 39.544C893.008 40.008 891.792 40.24 890.352 40.24C889.152 40.24 887.992 40.072 886.872 39.736C885.768 39.384 884.824 38.904 884.04 38.296L885.384 35.872C885.992 36.384 886.728 36.792 887.592 37.096C888.472 37.384 889.376 37.528 890.304 37.528C891.408 37.528 892.272 37.304 892.896 36.856C893.536 36.392 893.856 35.768 893.856 34.984C893.856 34.2 893.552 33.592 892.944 33.16C892.352 32.712 891.44 32.488 890.208 32.488H888.672V30.352L892.488 25.816H884.856V23.2H896.304V25.288L892.224 30.136Z" fill="white" fill-opacity="0.85"/>
<circle cx="457" cy="83" r="20" fill="#786CD9"/>
<path d="M463.24 88.36V91H450.856V88.912L457.528 82.576C458.28 81.856 458.784 81.232 459.04 80.704C459.312 80.16 459.448 79.624 459.448 79.096C459.448 78.312 459.184 77.712 458.656 77.296C458.128 76.88 457.352 76.672 456.328 76.672C454.616 76.672 453.304 77.256 452.392 78.424L450.208 76.744C450.864 75.864 451.744 75.184 452.848 74.704C453.968 74.208 455.216 73.96 456.592 73.96C458.416 73.96 459.872 74.392 460.96 75.256C462.048 76.12 462.592 77.296 462.592 78.784C462.592 79.696 462.4 80.552 462.016 81.352C461.632 82.152 460.896 83.064 459.808 84.088L455.32 88.36H463.24Z" fill="white" fill-opacity="0.85"/>
<circle cx="20" cy="45" r="20" fill="#786CD9"/>
<path d="M22.2937 36.2V53H19.1737V38.816H15.6217V36.2H22.2937Z" fill="white" fill-opacity="0.85"/>
</svg>
