<svg width="88" height="88" viewBox="0 0 88 88" fill="none" xmlns="http://www.w3.org/2000/svg">
<g filter="url(#filter0_d)">
<circle cx="44" cy="42" r="30" fill="white"/>
</g>
<g clip-path="url(#clip0)">
<path d="M48.8563 52.6674C48.3112 52.6674 47.8383 52.2622 47.7677 51.7075C47.6913 51.1055 48.117 50.5556 48.7187 50.479C52.1902 50.0367 55.299 49.0959 57.4722 47.8297C59.4598 46.6718 60.5541 45.3105 60.5541 43.9967C60.5541 42.5488 59.2736 41.364 58.1989 40.6247C57.6991 40.2809 57.5727 39.5971 57.9166 39.097C58.2605 38.5971 58.9445 38.4707 59.4444 38.8146C61.6079 40.3029 62.7514 42.0947 62.7514 43.997C62.7514 46.156 61.3086 48.1378 58.5786 49.7282C56.1213 51.1599 52.8079 52.1733 48.9965 52.6588C48.9493 52.6645 48.9023 52.6674 48.8563 52.6674Z" fill="#4F478F"/>
<path d="M43.7322 51.0935L40.8025 48.1638C40.3734 47.7347 39.6779 47.7347 39.2487 48.1638C38.8198 48.5927 38.8198 49.2885 39.2487 49.7174L40.1047 50.5734C36.8226 50.2344 33.8408 49.4702 31.5319 48.3598C28.9361 47.1115 27.4473 45.5211 27.4473 43.9968C27.4473 42.7039 28.5133 41.36 30.4488 40.2128C30.9709 39.9035 31.1431 39.2294 30.8339 38.7076C30.5243 38.1854 29.8502 38.0132 29.3284 38.3225C25.9575 40.3206 25.25 42.511 25.25 43.9968C25.25 46.4343 27.1429 48.6871 30.5798 50.3402C33.2474 51.6228 36.6981 52.482 40.4575 52.8144L39.2487 54.0232C38.8198 54.4521 38.8198 55.1479 39.2487 55.577C39.4633 55.7913 39.7445 55.8986 40.0258 55.8986C40.3067 55.8986 40.5879 55.7913 40.8025 55.577L43.7322 52.6473C44.1611 52.2182 44.1611 51.5224 43.7322 51.0935Z" fill="#4F478F"/>
<path d="M36.7563 41.7965V41.5321C36.7563 40.5997 36.1855 40.4189 35.4202 40.4189C34.947 40.4189 34.7939 40.0015 34.7939 39.5841C34.7939 39.1664 34.947 38.7489 35.4202 38.7489C35.9489 38.7489 36.5056 38.6794 36.5056 37.5522C36.5056 36.7451 36.0465 36.5502 35.4757 36.5502C34.7939 36.5502 34.446 36.7173 34.446 37.2601C34.446 37.733 34.2371 38.0531 33.43 38.0531C32.4281 38.0531 32.3031 37.8443 32.3031 37.1762C32.3031 36.091 33.0821 34.6854 35.4757 34.6854C37.2432 34.6854 38.579 35.3254 38.579 37.2043C38.579 38.2199 38.2034 39.1664 37.5076 39.4865C38.3287 39.7926 38.9269 40.4049 38.9269 41.5321V41.7965C38.9269 44.0787 37.3545 44.9416 35.4062 44.9416C33.0126 44.9416 32.0942 43.4805 32.0942 42.3115C32.0942 41.6852 32.3586 41.5181 33.1239 41.5181C34.0146 41.5181 34.2371 41.713 34.2371 42.242C34.2371 42.896 34.8497 43.0491 35.4757 43.0491C36.4221 43.0491 36.7563 42.7012 36.7563 41.7965Z" fill="#4F478F"/>
<path d="M47.3738 41.5321V41.6575C47.3738 44.051 45.8846 44.9416 43.9643 44.9416C42.044 44.9416 40.5408 44.051 40.5408 41.6575V37.9696C40.5408 35.5761 42.0854 34.6854 44.0896 34.6854C46.4413 34.6854 47.3738 36.1465 47.3738 37.3015C47.3738 37.9696 47.0536 38.1782 46.3578 38.1782C45.7596 38.1782 45.2306 38.0251 45.2306 37.3851C45.2306 36.8564 44.6741 36.578 44.0201 36.578C43.1989 36.578 42.7117 37.0094 42.7117 37.9696V39.2219C43.1572 38.7349 43.7835 38.6096 44.4515 38.6096C46.0377 38.6096 47.3738 39.3054 47.3738 41.5321ZM42.7117 41.8105C42.7117 42.7707 43.1849 43.1881 43.9643 43.1881C44.7436 43.1881 45.2028 42.7707 45.2028 41.8105V41.6852C45.2028 40.6693 44.7436 40.2796 43.9503 40.2796C43.1989 40.2796 42.7117 40.6415 42.7117 41.5599V41.8105Z" fill="#4F478F"/>
<path d="M49.0566 41.6577V37.9698C49.0566 35.5763 50.5455 34.6857 52.4661 34.6857C54.3864 34.6857 55.8893 35.5763 55.8893 37.9698V41.6577C55.8893 44.0512 54.3864 44.9419 52.4661 44.9419C50.5455 44.9419 49.0566 44.0512 49.0566 41.6577ZM53.7184 37.9698C53.7184 37.0097 53.2455 36.5782 52.4661 36.5782C51.6868 36.5782 51.2276 37.0097 51.2276 37.9698V41.6577C51.2276 42.6179 51.6868 43.0493 52.4661 43.0493C53.2455 43.0493 53.7184 42.6179 53.7184 41.6577V37.9698Z" fill="#4F478F"/>
<path d="M58.5278 34.6757C56.7102 34.6757 55.2319 33.1971 55.2319 31.3798C55.2319 29.5625 56.7102 28.0839 58.5278 28.0839C60.3452 28.0839 61.8237 29.5625 61.8237 31.3798C61.8237 33.1971 60.3452 34.6757 58.5278 34.6757ZM58.5278 30.2812C57.9219 30.2812 57.4292 30.7741 57.4292 31.3798C57.4292 31.9858 57.9219 32.4785 58.5278 32.4785C59.1335 32.4785 59.6265 31.9858 59.6265 31.3798C59.6265 30.7741 59.1335 30.2812 58.5278 30.2812Z" fill="#4F478F"/>
</g>
<defs>
<filter id="filter0_d" x="0" y="0" width="88" height="88" filterUnits="userSpaceOnUse" color-interpolation-filters="sRGB">
<feFlood flood-opacity="0" result="BackgroundImageFix"/>
<feColorMatrix in="SourceAlpha" type="matrix" values="0 0 0 0 0 0 0 0 0 0 0 0 0 0 0 0 0 0 127 0" result="hardAlpha"/>
<feMorphology radius="2" operator="dilate" in="SourceAlpha" result="effect1_dropShadow"/>
<feOffset dy="2"/>
<feGaussianBlur stdDeviation="6"/>
<feColorMatrix type="matrix" values="0 0 0 0 0.145098 0 0 0 0 0.2 0 0 0 0 0.258824 0 0 0 0.15 0"/>
<feBlend mode="normal" in2="BackgroundImageFix" result="effect1_dropShadow"/>
<feBlend mode="normal" in="SourceGraphic" in2="effect1_dropShadow" result="shape"/>
</filter>
<clipPath id="clip0">
<rect width="37.5" height="37.5" fill="white" transform="translate(25.25 23.25)"/>
</clipPath>
</defs>
</svg>
