<svg width="40" height="40" viewBox="0 0 40 40" fill="none" xmlns="http://www.w3.org/2000/svg">
<path d="M17.4736 24.758H14.3735L16.311 14.2492H19.4114L17.4736 24.758ZM11.7655 14.2492L8.80994 21.4772L8.46021 19.9207L8.46053 19.9213L7.41739 15.1954C7.41739 15.1954 7.29125 14.2492 5.9468 14.2492H1.06075L1.00342 14.4271C1.00342 14.4271 2.49758 14.7015 4.24624 15.6283L6.93961 24.7583H10.1697L15.1019 14.2492H11.7655ZM36.1495 24.758H38.9961L36.5142 14.2489H34.0221C32.8713 14.2489 32.591 15.0321 32.591 15.0321L27.9674 24.758H31.1991L31.8454 23.197H35.7864L36.1495 24.758ZM32.7382 21.0407L34.3671 17.108L35.2834 21.0407H32.7382ZM28.2098 16.7763L28.6523 14.5196C28.6523 14.5196 27.2871 14.0614 25.864 14.0614C24.3255 14.0614 20.6721 14.6548 20.6721 17.5403C20.6721 20.2553 24.96 20.289 24.96 21.715C24.96 23.1411 21.1139 22.8855 19.8446 21.9863L19.3837 24.3459C19.3837 24.3459 20.768 24.9393 22.883 24.9393C24.9985 24.9393 28.1901 23.9726 28.1901 21.3414C28.1901 18.6091 23.8637 18.3547 23.8637 17.1668C23.864 15.9785 26.8832 16.1312 28.2098 16.7763Z" fill="#2566AF"/>
<path d="M7.85301 19.9205L6.75496 15.1946C6.75496 15.1946 6.62219 14.2484 5.20697 14.2484H0.0637686L0.00341797 14.4264C0.00341797 14.4264 2.47544 14.8559 4.84655 16.4652C7.11371 18.0034 7.85301 19.9205 7.85301 19.9205Z" fill="#E6A540"/>
</svg>
