<svg width="227" height="64" viewBox="0 0 227 64" fill="none" xmlns="http://www.w3.org/2000/svg">
<path d="M93.1152 4.35938V20H89.8818V6.96973H85.7139L85.4561 12.4912C85.3486 14.3532 85.1123 15.8213 84.7471 16.8955C84.3818 17.9626 83.8483 18.7467 83.1465 19.248C82.4447 19.7422 81.485 19.9928 80.2676 20H79.4297V17.4111L79.9668 17.3574C80.776 17.25 81.3525 16.7845 81.6963 15.9609C82.0472 15.1302 82.2692 13.6549 82.3623 11.5352L82.6309 4.35938H93.1152ZM99.8123 9.99902H102.326C104.167 9.99902 105.624 10.4466 106.698 11.3418C107.779 12.2298 108.32 13.4294 108.32 14.9404C108.32 16.4587 107.783 17.6797 106.709 18.6035C105.642 19.5202 104.22 19.9857 102.444 20H96.5682V4.35938H99.8123V9.99902ZM99.8123 12.5986V17.4111H102.38C103.203 17.4111 103.859 17.1855 104.346 16.7344C104.84 16.2832 105.087 15.6781 105.087 14.9189C105.087 14.21 104.85 13.6514 104.378 13.2432C103.912 12.8278 103.271 12.613 102.455 12.5986H99.8123ZM111.021 20V4.35938H116.5C118.397 4.35938 119.837 4.72461 120.818 5.45508C121.799 6.17839 122.29 7.24186 122.29 8.64551C122.29 9.41178 122.093 10.0885 121.699 10.6758C121.305 11.2559 120.757 11.682 120.055 11.9541C120.857 12.1546 121.488 12.5592 121.946 13.168C122.411 13.7767 122.644 14.5215 122.644 15.4023C122.644 16.9062 122.164 18.0449 121.205 18.8184C120.245 19.5918 118.877 19.9857 117.101 20H111.021ZM114.244 13.1895V17.4111H117.005C117.764 17.4111 118.355 17.2321 118.777 16.874C119.207 16.5088 119.422 16.0075 119.422 15.3701C119.422 13.9378 118.68 13.2109 117.198 13.1895H114.244ZM114.244 10.9121H116.629C118.254 10.8835 119.067 10.2354 119.067 8.96777C119.067 8.25879 118.859 7.75033 118.444 7.44238C118.036 7.12728 117.388 6.96973 116.5 6.96973H114.244V10.9121ZM129.159 20H125.936V4.35938H129.159V20ZM132.816 20V4.35938H138.294C140.192 4.35938 141.632 4.72461 142.613 5.45508C143.594 6.17839 144.084 7.24186 144.084 8.64551C144.084 9.41178 143.887 10.0885 143.494 10.6758C143.1 11.2559 142.552 11.682 141.85 11.9541C142.652 12.1546 143.282 12.5592 143.741 13.168C144.206 13.7767 144.439 14.5215 144.439 15.4023C144.439 16.9062 143.959 18.0449 142.999 18.8184C142.04 19.5918 140.672 19.9857 138.896 20H132.816ZM136.038 13.1895V17.4111H138.799C139.558 17.4111 140.149 17.2321 140.572 16.874C141.001 16.5088 141.216 16.0075 141.216 15.3701C141.216 13.9378 140.475 13.2109 138.993 13.1895H136.038ZM136.038 10.9121H138.423C140.049 10.8835 140.862 10.2354 140.862 8.96777C140.862 8.25879 140.654 7.75033 140.239 7.44238C139.83 7.12728 139.182 6.96973 138.294 6.96973H136.038V10.9121ZM159.805 14.79C159.683 16.473 159.06 17.7979 157.936 18.7646C156.819 19.7314 155.343 20.2148 153.51 20.2148C151.505 20.2148 149.926 19.5417 148.773 18.1953C147.627 16.8418 147.054 14.987 147.054 12.6309V11.6748C147.054 10.1709 147.319 8.84603 147.849 7.7002C148.379 6.55436 149.134 5.67708 150.115 5.06836C151.104 4.45247 152.25 4.14453 153.553 4.14453C155.358 4.14453 156.811 4.62793 157.914 5.59473C159.017 6.56152 159.654 7.91862 159.826 9.66602H156.604C156.525 8.65625 156.242 7.92578 155.755 7.47461C155.275 7.01628 154.541 6.78711 153.553 6.78711C152.479 6.78711 151.673 7.17383 151.136 7.94727C150.606 8.71354 150.334 9.90592 150.32 11.5244V12.7061C150.32 14.3962 150.574 15.6315 151.082 16.4121C151.598 17.1927 152.407 17.583 153.51 17.583C154.505 17.583 155.247 17.3574 155.734 16.9062C156.228 16.4479 156.511 15.7425 156.582 14.79H159.805ZM165.804 9.99902H168.317C170.158 9.99902 171.615 10.4466 172.689 11.3418C173.771 12.2298 174.312 13.4294 174.312 14.9404C174.312 16.4587 173.774 17.6797 172.7 18.6035C171.633 19.5202 170.212 19.9857 168.436 20H162.56V4.35938H165.804V9.99902ZM165.804 12.5986V17.4111H168.371C169.195 17.4111 169.85 17.1855 170.337 16.7344C170.831 16.2832 171.078 15.6781 171.078 14.9189C171.078 14.21 170.842 13.6514 170.369 13.2432C169.904 12.8278 169.263 12.613 168.446 12.5986H165.804ZM182.115 13.6084H180.257V20H177.034V4.35938H180.257V10.6221H181.728L185.553 4.35938H189.484L184.661 11.7607L189.989 20H186.143L182.115 13.6084ZM201.273 4.35938H204.507V20H201.273V9.6123L195.01 20H191.788V4.35938H195.01V14.7686L201.273 4.35938ZM217.337 4.35938H220.571V20H217.337V9.6123L211.075 20H207.852V4.35938H211.075V14.7686L217.337 4.35938ZM217.961 0.245117C217.961 1.19759 217.617 1.96745 216.929 2.55469C216.249 3.14193 215.354 3.43555 214.244 3.43555C213.134 3.43555 212.235 3.14551 211.547 2.56543C210.867 1.98535 210.527 1.21191 210.527 0.245117H212.729C212.729 0.696289 212.862 1.0472 213.127 1.29785C213.399 1.54134 213.771 1.66309 214.244 1.66309C214.709 1.66309 215.074 1.54134 215.339 1.29785C215.604 1.0472 215.737 0.696289 215.737 0.245117H217.961ZM82.5684 28.0469L85.125 35.2656L87.668 28.0469H90.3613V38H88.3037V35.2793L88.5088 30.583L85.8223 38H84.4141L81.7344 30.5898L81.9395 35.2793V38H79.8887V28.0469H82.5684ZM98.2806 33.6865H94.3431V36.3525H98.9642V38H92.2923V28.0469H98.9505V29.708H94.3431V32.0801H98.2806V33.6865ZM109.536 40.4473H107.642V38H101.64V40.4404H99.6989L99.5896 36.3525H100.342C100.747 36.0153 101.059 35.5208 101.278 34.8691C101.501 34.2129 101.652 33.4017 101.729 32.4355L102.016 28.0469H108.538V36.3525H109.7L109.536 40.4473ZM102.693 36.3525H106.487V29.708H103.965L103.794 32.3262C103.657 34.0807 103.29 35.4229 102.693 36.3525ZM116.888 28.0469H118.945V38H116.888V31.3896L112.902 38H110.852V28.0469H112.902V34.6709L116.888 28.0469ZM128.615 28.0469V38H126.557V34.2266C125.933 34.3587 125.281 34.4248 124.602 34.4248C123.34 34.4248 122.38 34.1491 121.724 33.5977C121.072 33.0462 120.737 32.2487 120.719 31.2051V28.0469H122.777V31.1641C122.781 31.7337 122.918 32.1439 123.187 32.3945C123.46 32.6452 123.932 32.7705 124.602 32.7705C125.281 32.7705 125.933 32.7044 126.557 32.5723V28.0469H128.615ZM138.646 38H136.596V33.7344H132.596V38H130.546V28.0469H132.596V32.0801H136.596V28.0469H138.646V38ZM146.552 28.0469H148.61V38H146.552V31.3896L142.567 38H140.516V28.0469H142.567V34.6709L146.552 28.0469ZM156.495 28.0469H158.552V38H156.495V31.3896L152.509 38H150.459V28.0469H152.509V34.6709L156.495 28.0469ZM156.891 25.4287C156.891 26.0348 156.672 26.5247 156.235 26.8984C155.802 27.2721 155.232 27.459 154.526 27.459C153.82 27.459 153.248 27.2744 152.81 26.9053C152.377 26.5361 152.161 26.0439 152.161 25.4287H153.562C153.562 25.7158 153.646 25.9391 153.815 26.0986C153.988 26.2536 154.225 26.3311 154.526 26.3311C154.822 26.3311 155.055 26.2536 155.223 26.0986C155.392 25.9391 155.476 25.7158 155.476 25.4287H156.891ZM167.343 33.9326H166.16V38H164.11V28.0469H166.16V32.0322H167.097L169.531 28.0469H172.032L168.963 32.7568L172.354 38H169.906L167.343 33.9326ZM181.244 33.249C181.244 34.2288 181.071 35.0879 180.724 35.8262C180.378 36.5645 179.881 37.1341 179.234 37.5352C178.591 37.9362 177.853 38.1367 177.019 38.1367C176.194 38.1367 175.458 37.9385 174.811 37.542C174.164 37.1455 173.663 36.5804 173.307 35.8467C172.952 35.1084 172.772 34.2607 172.767 33.3037V32.8115C172.767 31.8317 172.943 30.9704 173.294 30.2275C173.649 29.4801 174.148 28.9082 174.791 28.5117C175.438 28.1107 176.176 27.9102 177.005 27.9102C177.835 27.9102 178.571 28.1107 179.213 28.5117C179.861 28.9082 180.36 29.4801 180.711 30.2275C181.066 30.9704 181.244 31.8294 181.244 32.8047V33.249ZM179.166 32.7979C179.166 31.7542 178.979 30.9613 178.605 30.4189C178.231 29.8766 177.698 29.6055 177.005 29.6055C176.317 29.6055 175.786 29.8743 175.413 30.4121C175.039 30.9453 174.85 31.7292 174.845 32.7637V33.249C174.845 34.2653 175.032 35.0537 175.406 35.6143C175.78 36.1748 176.317 36.4551 177.019 36.4551C177.707 36.4551 178.236 36.1862 178.605 35.6484C178.974 35.1061 179.161 34.3177 179.166 33.2832V32.7979ZM190.749 28.0469V38H188.691V29.708H186.039L185.875 33.2217C185.807 34.4066 185.656 35.3408 185.424 36.0244C185.191 36.7035 184.852 37.2025 184.405 37.5215C183.959 37.8359 183.348 37.9954 182.573 38H182.04V36.3525L182.382 36.3184C182.897 36.25 183.264 35.9538 183.482 35.4297C183.706 34.901 183.847 33.9622 183.906 32.6133L184.077 28.0469H190.749ZM198.668 33.6865H194.731V36.3525H199.352V38H192.68V28.0469H199.338V29.708H194.731V32.0801H198.668V33.6865ZM209.924 40.4473H208.03V38H202.028V40.4404H200.087L199.977 36.3525H200.729C201.135 36.0153 201.447 35.5208 201.666 34.8691C201.889 34.2129 202.039 33.4017 202.117 32.4355L202.404 28.0469H208.925V36.3525H210.088L209.924 40.4473ZM203.081 36.3525H206.875V29.708H204.352L204.181 32.3262C204.045 34.0807 203.678 35.4229 203.081 36.3525ZM219.702 33.9463H218.52V38H216.469V33.9463H215.259L213.092 38H210.535L213.639 32.6611L210.686 28.0469H213.235L215.45 32.0596H216.469V28.0469H218.52V32.0596H219.518L221.678 28.0469H224.221L221.322 32.6543L224.378 38H221.814L219.702 33.9463ZM86.7109 56H84.9473V48.8926H81.5312V56H79.7734V47.4688H86.7109V56ZM89.767 56H88.0091V47.4688H89.767V56ZM97.739 53.1582C97.6726 54.0762 97.3327 54.7988 96.7195 55.3262C96.1101 55.8535 95.3054 56.1172 94.3054 56.1172C93.2116 56.1172 92.3503 55.75 91.7214 55.0156C91.0964 54.2773 90.7839 53.2656 90.7839 51.9805V51.459C90.7839 50.6387 90.9284 49.916 91.2175 49.291C91.5066 48.666 91.9187 48.1875 92.4538 47.8555C92.9929 47.5195 93.6179 47.3516 94.3288 47.3516C95.3132 47.3516 96.1062 47.6152 96.7077 48.1426C97.3093 48.6699 97.657 49.4102 97.7507 50.3633H95.9929C95.9499 49.8125 95.7956 49.4141 95.53 49.168C95.2683 48.918 94.8679 48.793 94.3288 48.793C93.7429 48.793 93.3034 49.0039 93.0105 49.4258C92.7214 49.8438 92.573 50.4941 92.5652 51.377V52.0215C92.5652 52.9434 92.7038 53.6172 92.9812 54.043C93.2624 54.4688 93.7038 54.6816 94.3054 54.6816C94.8484 54.6816 95.2527 54.5586 95.5183 54.3125C95.7878 54.0625 95.9421 53.6777 95.9812 53.1582H97.739ZM105.471 47.4688V56H103.707V48.8926H101.434L101.293 51.9043C101.234 52.9199 101.106 53.7207 100.906 54.3066C100.707 54.8887 100.416 55.3164 100.033 55.5898C99.6505 55.8594 99.127 55.9961 98.463 56H98.0059V54.5879L98.2989 54.5586C98.7403 54.5 99.0548 54.2461 99.2423 53.7969C99.4337 53.3438 99.5548 52.5391 99.6055 51.3828L99.752 47.4688H105.471ZM110.589 56V52.9238H109.16L107.619 56H105.72L107.542 52.3613C106.664 51.877 106.224 51.125 106.224 50.1055C106.224 49.2695 106.497 48.623 107.044 48.166C107.591 47.709 108.355 47.4766 109.335 47.4688H112.353V56H110.589ZM107.982 50.2344C107.982 50.7109 108.097 51.0566 108.328 51.2715C108.562 51.4863 108.912 51.5938 109.376 51.5938H110.589V48.8926H109.376C108.447 48.8926 107.982 49.3398 107.982 50.2344ZM121.356 58.0977H119.733V56H114.589V58.0918H112.925L112.831 54.5879H113.475C113.823 54.2988 114.091 53.875 114.278 53.3164C114.47 52.7539 114.598 52.0586 114.665 51.2305L114.911 47.4688H120.501V54.5879H121.497L121.356 58.0977ZM115.491 54.5879H118.743V48.8926H116.581L116.434 51.1367C116.317 52.6406 116.003 53.791 115.491 54.5879ZM127.178 47.4688H128.942V56H127.178V50.334L123.762 56H122.004V47.4688H123.762V53.1465L127.178 47.4688ZM137.054 56H135.291V48.8926H131.875V56H130.117V47.4688H137.054V56ZM145.179 47.4688V56H143.415V48.8926H141.141L141.001 51.9043C140.942 52.9199 140.813 53.7207 140.614 54.3066C140.415 54.8887 140.124 55.3164 139.741 55.5898C139.358 55.8594 138.835 55.9961 138.171 56H137.714V54.5879L138.007 54.5586C138.448 54.5 138.763 54.2461 138.95 53.7969C139.141 53.3438 139.263 52.5391 139.313 51.3828L139.46 47.4688H145.179ZM153.362 51.9277C153.362 52.7676 153.213 53.5039 152.916 54.1367C152.619 54.7695 152.194 55.2578 151.639 55.6016C151.088 55.9453 150.455 56.1172 149.74 56.1172C149.033 56.1172 148.403 55.9473 147.848 55.6074C147.293 55.2676 146.864 54.7832 146.559 54.1543C146.254 53.5215 146.1 52.7949 146.096 51.9746V51.5527C146.096 50.7129 146.246 49.9746 146.547 49.3379C146.852 48.6973 147.28 48.207 147.83 47.8672C148.385 47.5234 149.018 47.3516 149.729 47.3516C150.44 47.3516 151.071 47.5234 151.621 47.8672C152.176 48.207 152.604 48.6973 152.905 49.3379C153.209 49.9746 153.362 50.7109 153.362 51.5469V51.9277ZM151.58 51.541C151.58 50.6465 151.42 49.9668 151.1 49.502C150.78 49.0371 150.323 48.8047 149.729 48.8047C149.139 48.8047 148.684 49.0352 148.364 49.4961C148.043 49.9531 147.881 50.625 147.877 51.5117V51.9277C147.877 52.7988 148.037 53.4746 148.358 53.9551C148.678 54.4355 149.139 54.6758 149.74 54.6758C150.33 54.6758 150.783 54.4453 151.1 53.9844C151.416 53.5195 151.576 52.8438 151.58 51.957V51.541ZM156.576 47.4688L158.767 53.6562L160.947 47.4688H163.255V56H161.492V53.668L161.668 49.6426L159.365 56H158.158L155.861 49.6484L156.037 53.668V56H154.279V47.4688H156.576ZM171.374 56H169.616V52.3438H166.188V56H164.431V47.4688H166.188V50.9258H169.616V47.4688H171.374V56ZM179.563 51.9277C179.563 52.7676 179.414 53.5039 179.118 54.1367C178.821 54.7695 178.395 55.2578 177.84 55.6016C177.289 55.9453 176.657 56.1172 175.942 56.1172C175.235 56.1172 174.604 55.9473 174.049 55.6074C173.494 55.2676 173.065 54.7832 172.76 54.1543C172.455 53.5215 172.301 52.7949 172.297 51.9746V51.5527C172.297 50.7129 172.448 49.9746 172.748 49.3379C173.053 48.6973 173.481 48.207 174.032 47.8672C174.586 47.5234 175.219 47.3516 175.93 47.3516C176.641 47.3516 177.272 47.5234 177.823 47.8672C178.377 48.207 178.805 48.6973 179.106 49.3379C179.41 49.9746 179.563 50.7109 179.563 51.5469V51.9277ZM177.782 51.541C177.782 50.6465 177.621 49.9668 177.301 49.502C176.981 49.0371 176.524 48.8047 175.93 48.8047C175.34 48.8047 174.885 49.0352 174.565 49.4961C174.244 49.9531 174.082 50.625 174.078 51.5117V51.9277C174.078 52.7988 174.239 53.4746 174.559 53.9551C174.879 54.4355 175.34 54.6758 175.942 54.6758C176.532 54.6758 176.985 54.4453 177.301 53.9844C177.618 53.5195 177.778 52.8438 177.782 51.957V51.541ZM182.349 56H180.591V47.4688H182.349V56ZM180.855 46.168C180.855 46.375 180.779 46.5508 180.627 46.6953C180.474 46.8359 180.279 46.9062 180.041 46.9062C179.799 46.9062 179.603 46.834 179.455 46.6895C179.306 46.5449 179.232 46.3711 179.232 46.168C179.232 45.9648 179.306 45.791 179.455 45.6465C179.603 45.498 179.799 45.4238 180.041 45.4238C180.283 45.4238 180.478 45.498 180.627 45.6465C180.779 45.791 180.855 45.9648 180.855 46.168ZM182.086 46.168C182.086 45.957 182.164 45.7812 182.32 45.6406C182.48 45.4961 182.674 45.4238 182.9 45.4238C183.131 45.4238 183.322 45.4961 183.474 45.6406C183.631 45.7852 183.709 45.9609 183.709 46.168C183.709 46.3711 183.634 46.5469 183.486 46.6953C183.338 46.8398 183.142 46.9121 182.9 46.9121C182.658 46.9121 182.461 46.8398 182.308 46.6953C182.16 46.5469 182.086 46.3711 182.086 46.168ZM193.26 51.9277C193.26 52.7676 193.112 53.5039 192.815 54.1367C192.518 54.7695 192.092 55.2578 191.537 55.6016C190.987 55.9453 190.354 56.1172 189.639 56.1172C188.932 56.1172 188.301 55.9473 187.746 55.6074C187.192 55.2676 186.762 54.7832 186.457 54.1543C186.153 53.5215 185.998 52.7949 185.995 51.9746V51.5527C185.995 50.7129 186.145 49.9746 186.446 49.3379C186.75 48.6973 187.178 48.207 187.729 47.8672C188.284 47.5234 188.916 47.3516 189.627 47.3516C190.338 47.3516 190.969 47.5234 191.52 47.8672C192.075 48.207 192.502 48.6973 192.803 49.3379C193.108 49.9746 193.26 50.7109 193.26 51.5469V51.9277ZM191.479 51.541C191.479 50.6465 191.319 49.9668 190.998 49.502C190.678 49.0371 190.221 48.8047 189.627 48.8047C189.037 48.8047 188.582 49.0352 188.262 49.4961C187.942 49.9531 187.78 50.625 187.776 51.5117V51.9277C187.776 52.7988 187.936 53.4746 188.256 53.9551C188.577 54.4355 189.037 54.6758 189.639 54.6758C190.229 54.6758 190.682 54.4453 190.998 53.9844C191.315 53.5195 191.475 52.8438 191.479 51.957V51.541ZM200.875 53.1582C200.808 54.0762 200.469 54.7988 199.855 55.3262C199.246 55.8535 198.441 56.1172 197.441 56.1172C196.347 56.1172 195.486 55.75 194.857 55.0156C194.232 54.2773 193.92 53.2656 193.92 51.9805V51.459C193.92 50.6387 194.064 49.916 194.353 49.291C194.642 48.666 195.054 48.1875 195.59 47.8555C196.129 47.5195 196.754 47.3516 197.465 47.3516C198.449 47.3516 199.242 47.6152 199.844 48.1426C200.445 48.6699 200.793 49.4102 200.886 50.3633H199.129C199.086 49.8125 198.931 49.4141 198.666 49.168C198.404 48.918 198.004 48.793 197.465 48.793C196.879 48.793 196.439 49.0039 196.146 49.4258C195.857 49.8438 195.709 50.4941 195.701 51.377V52.0215C195.701 52.9434 195.84 53.6172 196.117 54.043C196.398 54.4688 196.84 54.6816 197.441 54.6816C197.984 54.6816 198.388 54.5586 198.654 54.3125C198.924 54.0625 199.078 53.6777 199.117 53.1582H200.875ZM201.669 56V47.4688H204.657C205.692 47.4688 206.478 47.668 207.013 48.0664C207.548 48.4609 207.816 49.041 207.816 49.8066C207.816 50.2246 207.708 50.5938 207.493 50.9141C207.278 51.2305 206.98 51.4629 206.597 51.6113C207.034 51.7207 207.378 51.9414 207.628 52.2734C207.882 52.6055 208.009 53.0117 208.009 53.4922C208.009 54.3125 207.747 54.9336 207.224 55.3555C206.7 55.7773 205.954 55.9922 204.985 56H201.669ZM203.427 52.2852V54.5879H204.933C205.347 54.5879 205.669 54.4902 205.9 54.2949C206.134 54.0957 206.251 53.8223 206.251 53.4746C206.251 52.6934 205.847 52.2969 205.038 52.2852H203.427ZM203.427 51.043H204.728C205.614 51.0273 206.058 50.6738 206.058 49.9824C206.058 49.5957 205.944 49.3184 205.718 49.1504C205.495 48.9785 205.142 48.8926 204.657 48.8926H203.427V51.043ZM210.842 56H209.084V47.4688H210.842V56ZM218.363 48.8926H215.75V56H213.992V48.8926H211.414V47.4688H218.363V48.8926ZM224.126 47.4688H225.89V56H224.126V50.334L220.71 56H218.952V47.4688H220.71V53.1465L224.126 47.4688Z" fill="#4F478F"/>
<path d="M19.4999 0.000244141C17.8431 0.000244141 16.4999 1.34338 16.4999 3.00023V16.5002H2.99999C1.34313 16.5002 0 17.8433 0 19.5001V44.5C0 46.1569 1.34313 47.5 2.99999 47.5H16.4999V60.9999C16.4999 62.6568 17.8431 63.9999 19.4999 63.9999H44.4998C46.1566 63.9999 47.4998 62.6568 47.4998 60.9999V47.5H60.9997C62.6566 47.5 63.9997 46.1569 63.9997 44.5V19.5001C63.9997 17.8433 62.6566 16.5002 60.9997 16.5002H47.4998V3.00023C47.4998 1.34338 46.1566 0.000244141 44.4998 0.000244141H19.4999Z" fill="#4F478F"/>
<path d="M46.9175 33.524C44.7522 32.722 43.5488 30.0754 43.5488 30.0754C43.5488 30.0754 42.0249 35.5269 42.2655 37.934C42.506 40.3411 43.3888 41.7045 44.5115 42.8273C45.6341 43.9501 50.4463 45.1531 50.4463 45.1531C50.4463 45.1531 48.2804 43.9501 47.7995 42.9075C47.3185 41.8649 47.7995 39.5391 47.7995 39.5391C47.7995 39.5391 48.12 41.7495 48.9225 42.6669C49.7249 43.5842 50.9275 43.9501 50.9275 43.9501C50.9275 43.9501 50.9275 42.3461 50.6867 41.5441C50.4459 40.7421 49.6443 39.7797 49.6443 39.7797C49.6443 39.7797 50.9276 40.0203 51.4889 40.8223C52.0501 41.6243 52.3711 42.8273 52.3711 42.8273C52.3711 42.8273 52.9323 38.3361 51.8095 36.4914C50.6867 34.6468 49.0827 34.326 46.9175 33.524Z" fill="white"/>
<path d="M56.9072 31.1239C58.2597 30.6376 59.0114 29.0327 59.0114 29.0327C59.0114 29.0327 59.9633 32.3384 59.813 33.798C59.6628 35.2576 59.1113 36.0844 58.4101 36.7652C57.7089 37.446 54.703 38.1755 54.703 38.1755C54.703 38.1755 56.0559 37.446 56.3563 36.8138C56.6567 36.1816 56.3563 34.7713 56.3563 34.7713C56.3563 34.7713 56.1561 36.1117 55.6548 36.6679C55.1536 37.2242 54.4024 37.446 54.4024 37.446C54.4024 37.446 54.4024 36.4734 54.5528 35.9871C54.7032 35.5008 55.204 34.9172 55.204 34.9172C55.204 34.9172 54.4023 35.0631 54.0518 35.5494C53.7012 36.0357 53.5007 36.7652 53.5007 36.7652C53.5007 36.7652 53.1501 34.0418 53.8515 32.9233C54.5528 31.8047 55.5547 31.6102 56.9072 31.1239Z" fill="white"/>
<path d="M59.0026 39.0068C60.4171 39.2619 61.8705 38.2479 61.8705 38.2479C61.8705 38.2479 61.042 41.5866 60.182 42.7756C59.3221 43.9645 58.4312 44.4048 57.4835 44.6438C56.5358 44.8828 53.5679 44.0116 53.5679 44.0116C53.5679 44.0116 55.1042 44.0563 55.6805 43.659C56.2568 43.2617 56.7018 41.8901 56.7018 41.8901C56.7018 41.8901 55.8582 42.9508 55.146 43.1819C54.4338 43.413 53.6723 43.2296 53.6723 43.2296C53.6723 43.2296 54.1586 42.3872 54.532 42.0413C54.9055 41.6953 55.6309 41.4403 55.6309 41.4403C55.6309 41.4403 54.8637 41.1658 54.3169 41.4117C53.7702 41.6576 53.2318 42.1891 53.2318 42.1891C53.2318 42.1891 54.2899 39.6553 55.4566 39.0373C56.6232 38.4192 57.5882 38.7517 59.0026 39.0068Z" fill="white"/>
<path d="M34.566 22.2155C33.1224 20.5313 31.5986 19.4085 31.5986 19.4085C31.5986 19.4085 37.4532 18.5743 41.7038 13.6344C45.9545 8.6945 47.5585 5.69458 47.5585 5.69458C47.5585 5.69458 46.0347 12.672 43.7088 16.6018C41.383 20.5316 36.6512 25.3433 36.6512 25.3433C36.6512 25.3433 36.0096 23.8997 34.566 22.2155Z" fill="white"/>
<path fill-rule="evenodd" clip-rule="evenodd" d="M34.7112 10.6621C33.9078 11.505 32.7741 12.0303 31.5177 12.0303C30.2613 12.0303 29.1276 11.505 28.3242 10.6621C27.8608 11.386 27.5879 12.2739 27.5879 13.2333C27.5879 15.6694 29.3473 17.6443 31.5177 17.6443C33.6881 17.6443 35.4475 15.6694 35.4475 13.2333C35.4475 12.2739 35.1746 11.386 34.7112 10.6621Z" fill="white"/>
<path d="M31.5181 5.18626L36.09 8.10052L31.5181 10.1848L26.867 8.10052L31.5181 5.18626Z" fill="white"/>
<path fill-rule="evenodd" clip-rule="evenodd" d="M22.4948 0.000244141C21.9752 2.14487 20.0853 10.9299 22.6968 15.719C23.3212 16.864 23.9627 17.9098 24.5935 18.9382C26.9832 22.834 29.2201 26.4808 29.7954 34.3259C30.5226 44.242 24.3009 63.9995 24.3009 63.9995C24.3009 63.9995 24.3032 63.9996 24.3078 63.9999H19.4999C17.8431 63.9999 16.4999 62.6568 16.4999 60.9999V47.5H2.99999C1.34313 47.5 0 46.1569 0 44.5V19.5001C0 17.8433 1.34313 16.5002 2.99999 16.5002H16.4999V3.00023C16.4999 1.34338 17.8431 0.000244141 19.4999 0.000244141H22.4948Z" fill="#D4D2D8"/>
<path d="M24.6805 11.8696C22.7408 7.13781 22.5006 0 22.5006 0C22.5006 0 19.5132 10.1052 22.5006 15.5588C25.4879 21.0124 28.7982 24.2204 29.5248 34.085C30.2515 43.9497 24.2768 63.9997 24.2768 63.9997C24.2768 63.9997 32.4294 54.3757 35.2572 47.7191C38.0851 41.0625 39.6959 29.3532 35.2572 23.5788C30.8186 17.8044 26.6202 16.6014 24.6805 11.8696Z" fill="white"/>
<path fill-rule="evenodd" clip-rule="evenodd" d="M28.5518 9.17583V10.5865H34.4866V9.15234L31.5187 10.5054L28.5518 9.17583Z" fill="white"/>
<path fill-rule="evenodd" clip-rule="evenodd" d="M28.5522 10.5862C29.3398 11.2844 30.3797 11.709 31.5197 11.709C32.6596 11.709 33.6995 11.2844 34.4871 10.5862H28.5522Z" fill="white"/>
</svg>
