<svg width="40" height="40" viewBox="0 0 40 40" fill="none" xmlns="http://www.w3.org/2000/svg">
<path d="M12.1874 0.000305176C11.1519 0.000305176 10.3124 0.839767 10.3124 1.8753V10.3127H1.87499C0.839458 10.3127 0 11.1522 0 12.1877V27.8127C0 28.8482 0.839458 29.6877 1.87499 29.6877H10.3124V38.1251C10.3124 39.1606 11.1519 40.0001 12.1874 40.0001H27.8124C28.8479 40.0001 29.6874 39.1606 29.6874 38.1251V29.6877H38.1248C39.1603 29.6877 39.9998 28.8482 39.9998 27.8127V12.1877C39.9998 11.1522 39.1603 10.3128 38.1248 10.3128H29.6874V1.8753C29.6874 0.839767 28.8479 0.000305176 27.8124 0.000305176H12.1874Z" fill="#4F478F"/>
<path d="M29.3234 20.9525C27.9701 20.4512 27.2179 18.7971 27.2179 18.7971C27.2179 18.7971 26.2655 22.2043 26.4159 23.7087C26.5662 25.2131 27.118 26.0653 27.8196 26.767C28.5212 27.4688 31.5289 28.2206 31.5289 28.2206C31.5289 28.2206 30.1752 27.4688 29.8746 26.8171C29.574 26.1655 29.8746 24.7119 29.8746 24.7119C29.8746 24.7119 30.075 26.0934 30.5765 26.6668C31.078 27.2401 31.8296 27.4688 31.8296 27.4688C31.8296 27.4688 31.8296 26.4663 31.6791 25.965C31.5286 25.4638 31.0276 24.8623 31.0276 24.8623C31.0276 24.8623 31.8297 25.0126 32.1805 25.5139C32.5312 26.0151 32.7319 26.767 32.7319 26.767C32.7319 26.767 33.0826 23.96 32.3809 22.8071C31.6791 21.6542 30.6766 21.4537 29.3234 20.9525Z" fill="white"/>
<path d="M35.5664 19.4524C36.4117 19.1485 36.8815 18.1454 36.8815 18.1454C36.8815 18.1454 37.4764 20.2115 37.3825 21.1237C37.2886 22.036 36.944 22.5527 36.5057 22.9782C36.0674 23.4038 34.1888 23.8597 34.1888 23.8597C34.1888 23.8597 35.0343 23.4038 35.2221 23.0086C35.4098 22.6135 35.2221 21.7321 35.2221 21.7321C35.2221 21.7321 35.0969 22.5698 34.7837 22.9175C34.4704 23.2651 34.0009 23.4038 34.0009 23.4038C34.0009 23.4038 34.0009 22.7959 34.0949 22.4919C34.1889 22.188 34.5019 21.8232 34.5019 21.8232C34.5019 21.8232 34.0008 21.9144 33.7817 22.2184C33.5626 22.5223 33.4373 22.9782 33.4373 22.9782C33.4373 22.9782 33.2182 21.2761 33.6566 20.577C34.0949 19.878 34.7211 19.7564 35.5664 19.4524Z" fill="white"/>
<path d="M36.8763 24.3793C37.7604 24.5387 38.6687 23.9049 38.6687 23.9049C38.6687 23.9049 38.1509 25.9916 37.6135 26.7347C37.076 27.4778 36.5192 27.753 35.9269 27.9024C35.3346 28.0517 33.4796 27.5072 33.4796 27.5072C33.4796 27.5072 34.4398 27.5352 34.8 27.2869C35.1602 27.0385 35.4383 26.1813 35.4383 26.1813C35.4383 26.1813 34.9111 26.8442 34.4659 26.9887C34.0208 27.1331 33.5449 27.0185 33.5449 27.0185C33.5449 27.0185 33.8488 26.492 34.0822 26.2758C34.3156 26.0596 34.769 25.9002 34.769 25.9002C34.769 25.9002 34.2895 25.7286 33.9478 25.8823C33.6061 26.036 33.2696 26.3682 33.2696 26.3682C33.2696 26.3682 33.9309 24.7845 34.66 24.3983C35.3892 24.012 35.9923 24.2198 36.8763 24.3793Z" fill="white"/>
<path d="M21.604 13.8847C20.7018 12.832 19.7494 12.1303 19.7494 12.1303C19.7494 12.1303 23.4085 11.6089 26.0651 8.52146C28.7218 5.43403 29.7243 3.55908 29.7243 3.55908C29.7243 3.55908 28.7719 7.91996 27.3183 10.3761C25.8646 12.8322 22.9073 15.8395 22.9073 15.8395C22.9073 15.8395 22.5063 14.9373 21.604 13.8847Z" fill="white"/>
<path fill-rule="evenodd" clip-rule="evenodd" d="M21.6917 6.66388C21.1896 7.19071 20.481 7.519 19.6958 7.519C18.9105 7.519 18.2019 7.19071 17.6998 6.66388C17.4102 7.11631 17.2396 7.67124 17.2396 8.27088C17.2396 9.79346 18.3393 11.0278 19.6958 11.0278C21.0522 11.0278 22.1519 9.79346 22.1519 8.27088C22.1519 7.67124 21.9813 7.11631 21.6917 6.66388Z" fill="white"/>
<path d="M19.6992 3.24144L22.5566 5.06286L19.6992 6.36555L16.7922 5.06286L19.6992 3.24144Z" fill="white"/>
<path fill-rule="evenodd" clip-rule="evenodd" d="M14.0592 0.000305176C13.7345 1.3407 12.5533 6.83137 14.1855 9.82452C14.5757 10.5401 14.9767 11.1938 15.371 11.8365C16.8645 14.2714 18.2626 16.5507 18.6221 21.4538C19.0766 27.6514 15.188 39.9998 15.188 39.9998C15.188 39.9998 15.1895 39.9999 15.1923 40.0001H12.1874C11.1519 40.0001 10.3124 39.1606 10.3124 38.1251V29.6877H1.87499C0.839458 29.6877 0 28.8482 0 27.8127V12.1877C0 11.1522 0.839458 10.3128 1.87499 10.3128H10.3124V1.8753C10.3124 0.839767 11.1519 0.000305176 12.1874 0.000305176H14.0592Z" fill="#D4D2D8"/>
<path d="M15.4247 7.41851C14.2124 4.46113 14.0622 0 14.0622 0C14.0622 0 12.1952 6.31576 14.0622 9.72426C15.9293 13.1328 17.9982 15.1378 18.4524 21.3032C18.9066 27.4685 15.1724 39.9998 15.1724 39.9998C15.1724 39.9998 20.2678 33.9848 22.0352 29.8244C23.8026 25.664 24.8093 18.3458 22.0352 14.7368C19.261 11.1278 16.637 10.3759 15.4247 7.41851Z" fill="white"/>
<path fill-rule="evenodd" clip-rule="evenodd" d="M17.8451 5.73489V6.61655H21.5543V5.72021L19.6994 6.56587L17.8451 5.73489Z" fill="white"/>
<path fill-rule="evenodd" clip-rule="evenodd" d="M17.8451 6.61646C18.3373 7.05286 18.9872 7.31821 19.6997 7.31821C20.4122 7.31821 21.0621 7.05286 21.5543 6.61646H17.8451Z" fill="white"/>
</svg>
